<?xml version="1.0" encoding="utf-8"?>
<!-- Generator: Adobe Illustrator 16.0.3, SVG Export Plug-In . SVG Version: 6.00 Build 0)  -->
<!DOCTYPE svg PUBLIC "-//W3C//DTD SVG 1.1//EN" "http://www.w3.org/Graphics/SVG/1.1/DTD/svg11.dtd">
<svg version="1.1" id="Ebene_1" xmlns="http://www.w3.org/2000/svg" xmlns:xlink="http://www.w3.org/1999/xlink" x="0px" y="0px"
	 viewBox="0 0 65.2 65.2" enable-background="new 0 0 65.2 65.2" xml:space="preserve">
<g>
	<path fill="none" d="M32.705,1.479C15.67,1.479,1.81,15.338,1.81,32.372c0,17.035,13.859,30.893,30.895,30.893
		c17.032,0,30.89-13.856,30.89-30.893C63.595,15.338,49.737,1.479,32.705,1.479z M22.088,38.719c0-2,0-5,0-7
		C22.088,33.719,22.088,36.719,22.088,38.719z"/>
</g>
<path fill="#BB6E2A" d="M32.564,1.67C15.527,1.67,1.67,15.527,1.67,32.563c0,17.033,13.857,30.893,30.895,30.893
	c17.03,0,30.891-13.858,30.891-30.893C63.454,15.527,49.595,1.67,32.564,1.67z M22.088,38.719c0-2,0-5,0-7
	C22.088,33.719,22.088,36.719,22.088,38.719z"/>
<path fill="none" d="M14.279,50.538c-0.025-1.236-0.011-2.474-0.062-3.707c-0.061-1.518-0.137-3.035-0.272-4.549
	c-0.088-0.957-0.117-4.055-0.127-4.646c-0.002-0.151-0.06-1.453-0.05-2.063c0.008-0.367-0.273-1.943,1.091-2.166
	c1.364-0.222,12.341-1.182,12.464-1.292c0,1.461-0.175,3.026-0.175,4.196c0,0.182-5.425,0.508-5.511,0.518
	c-0.855,0.09-1.721,0.047-2.561,0.303c-0.829,0.252-1.098,0.519-1.106,1.391c-0.006,0.557,0.086,1.109,0.12,1.667
	c0.04,0.64,0.063,1.276,0.098,1.916c0.021,0.396,0.075,0.795,0.075,1.19c0,0.595-0.035,1.187-0.059,1.779
	c-0.006,0.098-0.029,0.195-0.029,0.293c-0.003,1.553-0.015,3.107,0,4.662c0.007,0.576,0.085,1.152,0.104,1.73
	c0.011,0.352-0.034,0.703-0.047,1.057c-0.02,0.561-0.032,1.121-0.051,1.682c-0.024,0.726-0.052,1.451-0.081,2.178
	c-0.017,0.41-0.035,0.82-0.061,1.23c4.282,2.463,9.239,3.881,14.523,3.881c16.11,0,29.22-13.109,29.22-29.224
	c0-16.114-13.107-29.224-29.218-29.224C16.449,3.34,3.34,16.449,3.34,32.563c0,9.243,4.318,17.491,11.038,22.85
	c-0.006-1.047-0.008-2.098-0.021-3.146C14.35,51.689,14.293,51.113,14.279,50.538z"/>
<path fill="#FFFFFF" d="M18.102,56.674c0.029-0.727,0.057-1.452,0.081-2.178c0.019-0.561,0.031-1.121,0.051-1.682
	c0.013-0.354,0.058-0.705,0.047-1.057c-0.02-0.578-0.098-1.154-0.104-1.73c-0.015-1.555-0.003-3.109,0-4.662
	c0-0.098,0.023-0.195,0.029-0.293c0.023-0.594,0.059-1.186,0.059-1.779c0-0.396-0.055-0.795-0.075-1.19
	c-0.035-0.64-0.058-1.276-0.098-1.916c-0.034-0.558-0.126-1.11-0.12-1.667c0.009-0.872,0.277-1.139,1.106-1.391
	c0.84-0.256,1.705-0.213,2.561-0.303c0.086-0.01,5.511-0.336,5.511-0.518c0-1.17,0.175-2.734,0.175-4.196
	c-0.123,0.111-11.1,1.071-12.464,1.292c-1.364,0.221-1.083,1.799-1.091,2.165c-0.01,0.61,0.048,1.912,0.05,2.063
	c0.01,0.593,0.039,3.689,0.127,4.646c0.136,1.514,0.212,3.031,0.272,4.549c0.051,1.233,0.036,2.471,0.062,3.707
	c0.014,0.575,0.07,1.151,0.077,1.729c0.013,1.048,0.016,2.098,0.021,3.146c1.153,0.92,2.377,1.752,3.663,2.492
	C18.067,57.495,18.085,57.084,18.102,56.674z"/>
<path fill="#FFFFFF" d="M32.564,0C14.607,0,0,14.607,0,32.563c0,11.119,5.605,20.95,14.136,26.827c1.167,0.805,2.39,1.53,3.66,2.18
	c4.437,2.269,9.454,3.556,14.769,3.556c17.952,0,32.561-14.606,32.561-32.563S50.517,0,32.564,0z M32.564,61.786
	c-5.285,0-10.242-1.418-14.523-3.881c-1.286-0.74-2.51-1.572-3.663-2.492C7.658,50.054,3.34,41.806,3.34,32.563
	C3.34,16.449,16.449,3.34,32.564,3.34c16.11,0,29.22,13.109,29.22,29.223C61.784,48.676,48.674,61.786,32.564,61.786z"/>
<g>
	<path fill="#FFFFFF" d="M50.229,37.368c0,0-0.182-14.076-0.25-14.598c-0.07-0.521-0.102-0.987-0.533-1.305
		c-0.947-0.698-10.939-8.517-11.34-8.815c-0.451-0.341-0.648-0.516-1.406,0.094c-0.762,0.61-10.758,8.9-11.004,9.084
		c-0.57,0.436-0.416,1.052-0.408,1.654c0.01,0.43,0.146,13.961,0.15,14.128c0.018,1.104,0.158,2.471,1.006,2.512
		c3.6,0.18,20.111-0.687,22.195-0.713C50.456,39.383,50.229,37.368,50.229,37.368z"/>
	<g>
		<path fill="#BB6E2A" d="M35.1,26.455c-0.004-0.113-0.01-0.423-0.012-0.536c0.002-0.563-0.041-1.036-0.164-1.576
			c-0.193-0.855-1.42-0.585-2.045-0.562c-0.521,0.021-1.949,0.084-2.209,0.694c-0.336,0.784-0.096,1.896-0.088,2.721
			c0.006,0.573,0.074,1.584,0.695,1.853c0.047,0.026,0.1,0.043,0.16,0.049c0.02,0.004,0.033,0.015,0.055,0.018
			c0.99,0.121,2.398-0.094,2.922-0.127C35.564,28.915,35.111,26.965,35.1,26.455z"/>
		<path fill="#BB6E2A" d="M44.6,25.83c-0.004-0.113-0.01-0.423-0.012-0.536c0.002-0.563-0.041-1.036-0.164-1.576
			c-0.193-0.855-1.42-0.585-2.045-0.562c-0.521,0.021-1.949,0.084-2.209,0.694c-0.336,0.784-0.096,1.896-0.088,2.721
			c0.006,0.573,0.073,1.584,0.694,1.853c0.048,0.026,0.101,0.043,0.16,0.049c0.021,0.004,0.033,0.015,0.056,0.018
			c0.989,0.121,2.397-0.094,2.922-0.127C45.064,28.29,44.611,26.34,44.6,25.83z"/>
		<path fill="#BB6E2A" d="M35.6,34.206c-0.004-0.113-0.01-0.424-0.012-0.537c0.002-0.563-0.041-1.036-0.164-1.576
			c-0.193-0.855-1.42-0.585-2.045-0.562c-0.521,0.021-1.949,0.084-2.209,0.694c-0.336,0.784-0.096,1.896-0.088,2.721
			c0.006,0.572,0.074,1.584,0.695,1.854c0.047,0.025,0.1,0.043,0.16,0.05c0.02,0.004,0.033,0.015,0.055,0.019
			c0.99,0.119,2.398-0.095,2.922-0.127C36.064,36.665,35.611,34.715,35.6,34.206z"/>
		<path fill="#BB6E2A" d="M45.1,33.581c-0.004-0.113-0.01-0.424-0.012-0.537c0.002-0.563-0.041-1.036-0.164-1.576
			c-0.193-0.855-1.42-0.585-2.045-0.562c-0.521,0.021-1.949,0.084-2.209,0.694c-0.336,0.784-0.096,1.896-0.088,2.721
			c0.006,0.572,0.073,1.584,0.694,1.854c0.048,0.025,0.101,0.043,0.16,0.05c0.021,0.004,0.033,0.015,0.056,0.019
			c0.989,0.119,2.397-0.095,2.922-0.127C45.564,36.04,45.111,34.09,45.1,33.581z"/>
	</g>
</g>
</svg>
