<?xml version="1.0" encoding="utf-8"?>
<!-- Generator: Adobe Illustrator 23.0.2, SVG Export Plug-In . SVG Version: 6.00 Build 0)  -->
<svg version="1.1" id="Ebene_1" xmlns="http://www.w3.org/2000/svg" xmlns:xlink="http://www.w3.org/1999/xlink" x="0px" y="0px"
	 viewBox="-50 0 653.46 190.73" style="enable-background:new 0 0 653.46 190.73;" xml:space="preserve">
<style type="text/css">
	.st0{clip-path:url(#SVGID_2_);}
	.st1{clip-path:url(#SVGID_6_);}
	.st2{clip-path:url(#SVGID_10_);}
	.st3{clip-path:url(#SVGID_14_);}
	.st4{clip-path:url(#SVGID_18_);}
	.st5{clip-path:url(#SVGID_22_);}
	.st6{clip-path:url(#SVGID_26_);}
	.st7{fill:#4CB4E7;}
	.st8{fill:#35ABE2;}
	.st9{fill:#0578BE;}
	.st10{fill:#64B6E7;}
	.st11{fill:#009CDC;}
	.st12{fill:#009FDD;}
	.st13{fill:#0087CC;}
	.st14{clip-path:url(#SVGID_30_);}
	.st15{clip-path:url(#SVGID_34_);}
	.st16{fill:#00A5DF;}
	.st17{clip-path:url(#SVGID_38_);}
	.st18{clip-path:url(#SVGID_42_);}
	.st19{fill:#86C2EB;}
	.st20{fill:#4EB2E5;}
	.st21{fill:#72BDEA;}
	.st22{clip-path:url(#SVGID_46_);fill:none;stroke:#FFFFFF;stroke-width:0.445;stroke-miterlimit:10;}
	.st23{fill:#83929B;}
	.st24{fill:#0095DB;}
</style>
<g>
	<path d="M417.307,105.074l-2.137-6.302h-12.871l-2.188,6.302h-7.377l13.177-35.613h5.545l13.227,35.613H417.307z M408.861,79.965
		l-4.578,12.955h9.004L408.861,79.965z"/>
	<path d="M440.471,75.664v29.411h-7.071V75.664h-9.462v-6.203h25.996v6.203H440.471z"/>
	<path d="M456.088,105.074V69.461h7.071v29.411h16.432v6.202H456.088z"/>
	<path d="M508.46,105.074l-2.137-6.302h-12.871l-2.188,6.302h-7.377l13.177-35.613h5.545l13.227,35.613H508.46z M500.015,79.965
		l-4.578,12.955h9.004L500.015,79.965z"/>
	<path d="M532.423,105.375c-5.494,0-9.666-1.15-13.227-4.702l4.578-4.502c2.289,2.251,5.393,3.001,8.699,3.001
		c4.223,0,6.461-1.601,6.461-4.452c0-1.2-0.356-2.201-1.119-2.951c-0.712-0.65-1.425-0.95-3.256-1.2l-4.324-0.65
		c-3.205-0.45-5.393-1.4-7.021-2.951c-1.729-1.65-2.595-4.001-2.595-7.003c0-6.353,4.782-10.804,12.617-10.804
		c4.985,0,8.597,1.2,11.7,4.151l-4.477,4.352c-2.238-2.151-5.036-2.451-7.428-2.451c-3.765,0-5.545,2.051-5.545,4.501
		c0,0.95,0.255,1.851,1.018,2.551c0.712,0.65,1.78,1.151,3.307,1.351l4.324,0.65c3.307,0.45,5.342,1.301,6.919,2.801
		c1.933,1.751,2.798,4.302,2.798,7.503C545.854,101.473,540.054,105.375,532.423,105.375z"/>
</g>
<g>
	<path d="M162.492,105.074V69.461h23.859v6.203h-16.788v8.353h14.295v6.202h-14.295v8.653h16.788v6.202H162.492z"/>
	<path d="M214.803,105.074l-14.346-21.858v21.858h-7.071V69.461h6.308l14.347,21.808V69.461h7.071v35.613H214.803z"/>
	<path d="M229.579,105.074V69.461h23.859v6.203H236.65v8.353h14.295v6.202H236.65v8.653h16.788v6.202H229.579z"/>
	<path d="M279.702,105.074l-7.071-14.205h-5.087v14.205h-7.071V69.461h14.193c7.377,0,11.752,4.952,11.752,10.904
		c0,5.002-3.104,8.103-6.614,9.354l8.089,15.355H279.702z M274.208,75.664h-6.664v9.404h6.664c3.104,0,5.139-1.951,5.139-4.702
		S277.312,75.664,274.208,75.664z"/>
	<path d="M316.313,101.323c-3.002,3.101-6.359,4.052-10.226,4.052c-4.12,0-7.173-1.351-9.666-3.752
		c-3.611-3.551-3.662-7.553-3.662-14.355c0-6.802,0.051-10.804,3.662-14.355c2.493-2.401,5.546-3.751,9.666-3.751
		c8.445,0,12.667,5.402,13.634,11.404h-7.122c-0.813-3.401-2.899-5.202-6.512-5.202c-1.933,0-3.459,0.75-4.527,1.901
		c-1.323,1.5-1.729,3.201-1.729,10.003c0,6.803,0.406,8.553,1.729,10.054c1.068,1.15,2.595,1.851,4.527,1.851
		c2.188,0,3.917-0.75,5.036-2c1.171-1.3,1.628-2.901,1.628-4.752v-1.3h-6.664v-5.852h13.685v5.202
		C319.771,95.621,318.958,98.622,316.313,101.323z"/>
	<path d="M327.182,105.074V69.461h7.071v35.613H327.182z"/>
	<path d="M342.62,105.074V69.461h23.859v6.203h-16.788v8.353h14.295v6.202h-14.295v8.653h16.788v6.202H342.62z"/>
</g>
<g>
	<path d="M400.609,145.76h-7.701v-19.458h7.451c3.447,0,5.838,1.94,5.838,5.192c0,2.05-1.251,3.662-2.919,4.263
		c1.891,0.684,3.226,2.296,3.226,4.619C406.504,143.901,404.112,145.76,400.609,145.76z M400.192,128.16h-5.171v6.75h5.171
		c2.196,0,3.893-1.065,3.893-3.389C404.085,129.199,402.389,128.16,400.192,128.16z M400.415,136.769h-5.394v7.133h5.394
		c2.446,0,3.976-1.394,3.976-3.58C404.391,138.136,402.861,136.769,400.415,136.769z"/>
	<path d="M433.823,145.76l-1.585-4.4h-8.646l-1.584,4.4h-2.252l7.283-19.458h1.779l7.257,19.458H433.823z M427.957,129.281
		l-3.726,10.275h7.396L427.957,129.281z"/>
	<path d="M454.074,137.725v8.035h-2.113v-8.035l-5.894-11.423h2.279l4.671,9.319l4.615-9.319h2.279L454.074,137.725z"/>
	<path d="M474.161,145.76v-19.458h12.288v1.858h-10.175v6.859h8.674v1.858h-8.674v7.023h10.175v1.858H474.161z"/>
	<path d="M512.703,145.76l-4.504-8.636h-4.754v8.636h-2.113v-19.458h7.59c3.447,0,5.866,2.05,5.866,5.411
		c0,2.842-1.751,4.701-4.31,5.22l4.699,8.827H512.703z M508.728,128.16h-5.282v7.133h5.282c2.308,0,3.948-1.175,3.948-3.553
		S511.035,128.16,508.728,128.16z"/>
	<path d="M542.698,145.76l-10.509-15.604v15.604h-2.113v-19.458h2.002l10.509,15.55v-15.55h2.113v19.458H542.698z"/>
</g>
<line fill="none" stroke="#0062A7" stroke-width="1.8419" x1="392.517" y1="116.056" x2="544.98" y2="116.056"/>
<rect x="374.355" y="84.023" width="14.488" height="6.208"/>


</svg>
