<?xml version="1.0" encoding="utf-8"?>
<!-- Generator: Adobe Illustrator 26.0.2, SVG Export Plug-In . SVG Version: 6.00 Build 0)  -->
<svg version="1.1" xmlns="http://www.w3.org/2000/svg" xmlns:xlink="http://www.w3.org/1999/xlink" x="0px" y="0px"
	 viewBox="0 0 72 72" style="enable-background:new 0 0 72 72;" xml:space="preserve">
<style type="text/css">
	.st0{fill:#E66414;}
	.st1{fill:#FFFFFF;}
</style>
<g id="Ebene_1">
	<path class="st0" d="M64.32,48.33C59.55,59.24,48.65,66.89,36,66.89c-14.5,0-26.69-10.04-30-23.53c-0.24-0.99-0.44-2-0.58-3.03
		c-0.2-1.41-0.31-2.86-0.31-4.33C5.11,18.97,18.97,5.11,36,5.11S66.89,18.97,66.89,36c0,3.18-0.48,6.25-1.38,9.13
		C65.18,46.23,64.77,47.29,64.32,48.33z"/>
	<path class="st1" d="M56.69,39.36c-2.29-2.13-6.22-5.7-8.34-9.09c-0.08-0.13,0.01-0.29,0.16-0.33c0.56-0.14,1.02-0.54,1.34-1.1
		c0.14-0.24,0.27-0.85,0.47-0.87c0.2-0.02,4.36,5.34,7.59,10.4c0.28,0.44,0.18,0.81-0.21,1.13C57.31,39.8,57.06,39.71,56.69,39.36z
		 M31.54,27.37c0.01,0.5,0.23,0.82,0.74,0.87c5.97,0.67,12.75,0.81,12.86,0.64c0.11-0.17-0.28-0.66-0.38-0.92
		c-0.23-0.6-0.26-1.21-0.02-1.73c0.07-0.14,0-0.31-0.16-0.33c-3.97-0.49-9.21,0.33-12.31,0.77C31.76,26.74,31.53,26.88,31.54,27.37z
		 M46.21,29.85c-0.24,0.26-0.27,35.48-0.27,35.48c0,0.16,0.06,0.31,0.17,0.41c0.1,0.1,0.24,0.16,0.38,0.16h1.82
		c0.15,0,0.28-0.06,0.39-0.16c0.11-0.11,0.17-0.27,0.17-0.42l-1.07-33.31c0-0.13-0.05-0.26-0.12-0.36
		C47.13,30.88,46.46,29.59,46.21,29.85z M47.73,26.21c-0.75-0.15-1.51,0.35-1.51,1.14c0,0.99,1.11,1.48,1.92,0.97
		c0.37-0.23,0.53-0.6,0.52-0.97C48.64,26.84,48.29,26.33,47.73,26.21z M53.04,12.55c-0.47-0.18-0.84-0.08-1.08,0.38
		c-2.79,5.32-5.37,11.59-5.25,11.75s0.71-0.02,0.99-0.02c0.64,0,1.22,0.19,1.62,0.61c0.11,0.11,0.29,0.11,0.37-0.03
		c1.9-3.52,3.03-8.71,3.74-11.75C53.55,12.99,53.51,12.73,53.04,12.55z M33.09,52.95c-2.95,0-2.96-0.16-5.9-0.16
		c-0.43,0-0.86-0.14-0.84-0.43c0.18-2.77,0.11-2.77,0.3-5.53c0.02-0.29,0.47-0.48,0.84-0.48c2.52,0,2.52-0.08,5.03-0.08
		c0.37,0,0.86,0.27,0.89,0.56c0.3,2.77,0.3,2.77,0.6,5.53C34.03,52.65,33.52,52.95,33.09,52.95z M43.46,52.36
		c-0.89-2.77-0.92-2.77-1.81-5.53c-0.09-0.29-0.38-0.46-0.75-0.46c-2.52,0-2.54-0.09-5.05-0.09c-0.37,0-0.68,0.27-0.64,0.55
		c0.43,2.77,0.46,2.77,0.89,5.53c0.04,0.29,0.48,0.55,0.91,0.55c2.95,0,2.93-0.08,5.88-0.08C43.32,52.83,43.56,52.65,43.46,52.36z
		 M23.99,52.36c0.33-2.77,0.25-2.77,0.59-5.53c0.03-0.29-0.06-0.62-0.42-0.62c-2.51,0-2.54,0.15-5.06,0.15
		c-0.37,0-0.56,0.18-0.64,0.46c-0.77,2.77-0.77,2.77-1.54,5.53c-0.08,0.29,0.04,0.44,0.47,0.44c2.94,0,2.94,0.02,5.88,0.02
		C23.7,52.82,23.96,52.65,23.99,52.36z M32.85,44.3c-0.28-2.77-0.17-2.77-0.46-5.53c-0.03-0.29-0.28-0.5-0.57-0.5
		c-1.98,0-1.99-0.23-3.96-0.23c-0.29,0-0.42,0.44-0.44,0.73c-0.16,2.77-0.27,2.77-0.44,5.53c-0.02,0.29,0.2,0.73,0.56,0.73
		c2.43,0,2.43-0.21,4.84-0.21C32.74,44.82,32.88,44.58,32.85,44.3z M40.95,44.3c-0.9-2.77-1.01-2.77-1.9-5.53
		c-0.09-0.29-0.33-0.51-0.62-0.51c-1.98,0-1.98,0.03-3.96,0.03c-0.29,0-0.56,0.19-0.52,0.48c0.43,2.77,0.57,2.77,1.01,5.53
		c0.05,0.29,0.29,0.47,0.64,0.47c2.41,0,2.44,0.1,4.86,0.1C40.8,44.87,41.04,44.58,40.95,44.3z M25.1,44.3
		c0.32-2.77,0.24-2.77,0.56-5.53c0.03-0.29-0.17-0.39-0.46-0.39c-1.99,0-1.97-0.12-3.95-0.12c-0.29,0-0.58,0.23-0.67,0.51
		c-0.78,2.77-1.02,2.77-1.82,5.53c-0.08,0.29,0.41,0.47,0.76,0.47c2.41,0,2.42-0.04,4.83-0.04C24.7,44.73,25.06,44.58,25.1,44.3z
		 M43.71,55.06c-4.48,0-9.01-0.05-13.51-0.15c-2.46-0.05-4.93-0.09-7.39-0.12c-1.23-0.01-2.46-0.02-3.69-0.03c-0.6,0-1.2,0-1.81,0
		c-0.46,0-1.02-0.1-1.3,0.37c-0.16,0.27-0.13,0.64,0.07,0.88c0.31,0.37,0.86,0.25,1.29,0.26c0.63,0,1.26,0,1.88,0
		c1.26,0,2.51,0.01,3.77,0.03c1.06,0.01,2.13,0.02,3.19,0.04c0.38,0.01,2.86-0.1,2.86,0.2c0,0.27,0.17,1.21-0.04,1.41
		c-0.21,0.21-0.63,0.07-0.88,0.05c-0.44-0.04-0.9-0.05-1.34-0.05c-0.35,0-0.73,0.1-0.92,0.4c-0.16,0.25-0.12,0.6,0.07,0.83
		c0.33,0.4,0.92,0.29,1.38,0.29c1.4,0,2.8,0,4.2,0c0.54,0,1.46,0.16,1.93-0.1c0.23-0.13,0.38-0.38,0.38-0.64
		c0-0.25-0.13-0.53-0.37-0.64c-0.14-0.06-0.29-0.07-0.43-0.08c-0.21-0.01-2.46-0.14-2.47-0.04c0.07-0.5,0-1.02,0.01-1.52
		c0,0.07,5.65,0.08,6.04,0.08c2.36,0.01,4.72,0.03,7.08,0.03c0.41,0,0.75-0.34,0.75-0.75S44.12,55.06,43.71,55.06z M44.45,40.7
		c0.14,0.12,0.21,2.92,0.05,3.02s-0.43,0.17-0.55,0.19c-0.5,0.11-1.08,0.38-1.23,0.28c-0.15-0.1-1.06-2.83-0.91-2.97
		c0.21-0.19,1.35-0.34,1.89-0.45C44.03,40.7,44.31,40.58,44.45,40.7z M64.23,44.27c-0.99-0.46-1.74-0.68-2.54-1l-1.47-0.58
		c-0.53-0.2-1.06-0.39-1.6-0.56c-1.08-0.34-2.19-0.6-3.31-0.78c-0.56-0.09-1.12-0.16-1.68-0.22l-0.84-0.07
		c-0.24-0.02-0.46-0.04-0.71-0.07c-0.61-0.07-1.26-0.18-1.94-0.29c-0.24-0.04-0.45,0.15-0.44,0.39l0.08,2.38
		c0.01,0.18,0.14,0.33,0.32,0.36c0.52,0.08,1.05,0.17,1.61,0.24c0.28,0.04,0.59,0.06,0.88,0.09l0.75,0.06
		c0.5,0.05,0.99,0.11,1.48,0.19c0.98,0.16,1.94,0.38,2.88,0.68c0.47,0.15,0.94,0.31,1.4,0.49l1.49,0.59c0.8,0.31,1.7,0.61,2.26,0.88
		c0.27,0.13,0.45,0.26,0.7,0.49c0.23,0.21,0.5,0.49,0.76,0.79c0.45-1.04,0.86-2.1,1.2-3.19C65.15,44.81,64.69,44.48,64.23,44.27z
		 M11.77,44.63c1.43,0.37,2.73,0.79,3.97,1.26c0.31,0.12,0.65-0.05,0.74-0.37L17,43.74c0.08-0.28-0.06-0.59-0.34-0.69
		c-1.3-0.49-2.65-0.93-4.14-1.31c-0.47-0.12-0.94-0.26-1.4-0.39c-1.79-0.51-3.65-1.04-5.71-1.01c0.14,1.03,0.34,2.04,0.58,3.03
		c1.43,0.07,2.84,0.45,4.31,0.87C10.79,44.36,11.28,44.5,11.77,44.63z M36,1.61C17.04,1.61,1.61,17.04,1.61,36
		c0,18.96,15.43,34.39,34.39,34.39c18.96,0,34.39-15.43,34.39-34.39C70.39,17.04,54.97,1.61,36,1.61z M64.32,48.33
		C59.55,59.24,48.65,66.89,36,66.89c-14.5,0-26.69-10.04-30-23.53c-0.24-0.99-0.44-2-0.58-3.03c-0.2-1.41-0.31-2.86-0.31-4.33
		C5.11,18.97,18.97,5.11,36,5.11S66.89,18.97,66.89,36c0,3.18-0.48,6.25-1.38,9.13C65.18,46.23,64.77,47.29,64.32,48.33z"/>
</g>
<g id="Ebene_2">
</g>
</svg>
