<?xml version="1.0" encoding="UTF-8" standalone="no"?>
<svg
   xmlns:dc="http://purl.org/dc/elements/1.1/"
   xmlns:cc="http://creativecommons.org/ns#"
   xmlns:rdf="http://www.w3.org/1999/02/22-rdf-syntax-ns#"
   xmlns:svg="http://www.w3.org/2000/svg"
   xmlns="http://www.w3.org/2000/svg"
   xmlns:sodipodi="http://sodipodi.sourceforge.net/DTD/sodipodi-0.dtd"
   xmlns:inkscape="http://www.inkscape.org/namespaces/inkscape"
   version="1.1"
   id="Ebene_1"
   x="0px"
   y="0px"
   viewBox="0 0 65.2 65.2"
   enable-background="new 0 0 65.2 65.2"
   xml:space="preserve"
   sodipodi:docname="2d_analyse_icon_neu.svg"
   inkscape:version="1.0.2-2 (e86c870879, 2021-01-15)"><metadata
   id="metadata33"><rdf:RDF><cc:Work
       rdf:about=""><dc:format>image/svg+xml</dc:format><dc:type
         rdf:resource="http://purl.org/dc/dcmitype/StillImage" /><dc:title></dc:title></cc:Work></rdf:RDF></metadata><defs
   id="defs31" /><sodipodi:namedview
   pagecolor="#ffffff"
   bordercolor="#666666"
   borderopacity="1"
   objecttolerance="10"
   gridtolerance="10"
   guidetolerance="10"
   inkscape:pageopacity="0"
   inkscape:pageshadow="2"
   inkscape:window-width="1920"
   inkscape:window-height="1137"
   id="namedview29"
   showgrid="false"
   inkscape:zoom="5.6568543"
   inkscape:cx="4.355729"
   inkscape:cy="46.582571"
   inkscape:window-x="-8"
   inkscape:window-y="-8"
   inkscape:window-maximized="1"
   inkscape:current-layer="Ebene_1" />
<g
   id="g4">
	<path
   fill="none"
   d="M32.705,1.479C15.67,1.479,1.81,15.338,1.81,32.372c0,17.035,13.859,30.893,30.895,30.893   c17.032,0,30.89-13.856,30.89-30.893C63.595,15.338,49.737,1.479,32.705,1.479z M22.088,38.719c0-2,0-5,0-7   C22.088,33.719,22.088,36.719,22.088,38.719z"
   id="path2" />
</g>
<path
   fill="#e66414"
   d="M 32.564,1.67 C 15.527,1.67 1.67,15.527 1.67,32.563 c 0,17.033 13.857,30.893 30.895,30.893 17.03,0 30.891,-13.858 30.891,-30.893 C 63.454,15.527 49.595,1.67 32.564,1.67 Z M 22.088,38.719 c 0,-2 0,-5 0,-7 0,2 0,5 0,7 z"
   id="path6" />
<path
   fill="none"
   d="M14.279,50.538c-0.025-1.236-0.011-2.474-0.062-3.707c-0.061-1.518-0.137-3.035-0.272-4.549  c-0.088-0.957-0.117-4.055-0.127-4.646c-0.002-0.151-0.06-1.453-0.05-2.063c0.008-0.367-0.273-1.943,1.091-2.166  c1.364-0.222,12.341-1.182,12.464-1.292c0,1.461-0.175,3.026-0.175,4.196c0,0.182-5.425,0.508-5.511,0.518  c-0.855,0.09-1.721,0.047-2.561,0.303c-0.829,0.252-1.098,0.519-1.106,1.391c-0.006,0.557,0.086,1.109,0.12,1.667  c0.04,0.64,0.063,1.276,0.098,1.916c0.021,0.396,0.075,0.795,0.075,1.19c0,0.595-0.035,1.187-0.059,1.779  c-0.006,0.098-0.029,0.195-0.029,0.293c-0.003,1.553-0.015,3.107,0,4.662c0.007,0.576,0.085,1.152,0.104,1.73  c0.011,0.352-0.034,0.703-0.047,1.057c-0.02,0.561-0.032,1.121-0.051,1.682c-0.024,0.726-0.052,1.451-0.081,2.178  c-0.017,0.41-0.035,0.82-0.061,1.23c4.282,2.463,9.239,3.881,14.523,3.881c16.11,0,29.22-13.109,29.22-29.224  c0-16.114-13.107-29.224-29.218-29.224C16.449,3.34,3.34,16.449,3.34,32.563c0,9.243,4.318,17.491,11.038,22.85  c-0.006-1.047-0.008-2.098-0.021-3.146C14.35,51.689,14.293,51.113,14.279,50.538z"
   id="path8" />

<path
   fill="#FFFFFF"
   d="M32.564,0C14.607,0,0,14.607,0,32.563c0,11.119,5.605,20.95,14.136,26.827c1.167,0.805,2.39,1.53,3.66,2.18  c4.437,2.269,9.454,3.556,14.769,3.556c17.952,0,32.561-14.606,32.561-32.563S50.517,0,32.564,0z M32.564,61.786  c-5.285,0-10.242-1.418-14.523-3.881c-1.286-0.74-2.51-1.572-3.663-2.492C7.658,50.054,3.34,41.806,3.34,32.563  C3.34,16.449,16.449,3.34,32.564,3.34c16.11,0,29.22,13.109,29.22,29.223C61.784,48.676,48.674,61.786,32.564,61.786z"
   id="path12"
   style="fill:#ffffff;fill-opacity:1" />

<path
   class="st1"
   d="m 52.149283,35.734389 c -2.167728,-2.01628 -5.887891,-5.39566 -7.894696,-8.604655 -0.07573,-0.123059 0.0095,-0.274516 0.151457,-0.31238 0.5301,-0.132525 0.965538,-0.511168 1.268452,-1.041267 0.132525,-0.227186 0.255584,-0.804615 0.444905,-0.823548 0.189322,-0.01893 4.127203,5.05488 7.184741,9.8447 0.26505,0.41651 0.170389,0.76676 -0.198787,1.06967 -0.369176,0.28398 -0.605828,0.19879 -0.956072,-0.13252 z M 28.342137,24.384576 c 0.0095,0.473303 0.217719,0.776217 0.700488,0.823547 5.651239,0.634226 12.069229,0.766751 12.173356,0.605828 0.104127,-0.160923 -0.26505,-0.62476 -0.35971,-0.870878 -0.21772,-0.567963 -0.246118,-1.145393 -0.01893,-1.637628 0.06626,-0.132525 0,-0.293448 -0.151457,-0.31238 -3.758027,-0.463837 -8.718243,0.31238 -11.652723,0.728886 -0.482769,0.06626 -0.700488,0.198788 -0.691022,0.662625 z m 13.886713,2.347583 c 0.495726,11.187219 -1.524041,22.440173 -0.188411,33.481513 0.81825,-0.04384 1.461795,-0.371988 1.895034,-0.53605 0.141991,0 0.593175,-0.423988 0.697301,-0.518638 0.06047,-10.487672 -0.558538,-19.788888 -0.89882,-30.382155 0,-0.12306 -0.04733,-0.24612 -0.113593,-0.34078 -0.520633,-0.728886 -1.15486,-1.950008 -1.391511,-1.70389 z m 1.438841,-3.445646 c -0.709954,-0.141991 -1.429375,0.331312 -1.429375,1.079131 0,0.93714 1.050733,1.400977 1.817484,0.918208 0.350244,-0.21772 0.501701,-0.567964 0.492235,-0.918208 -0.01893,-0.48277 -0.350244,-0.965539 -0.880344,-1.079131 z M 48.69417,10.355872 c -0.444905,-0.170389 -0.795149,-0.07573 -1.022335,0.35971 -2.641031,5.035945 -5.083275,10.971166 -4.969682,11.122623 0.113593,0.151457 0.67209,-0.01893 0.93714,-0.01893 0.605828,0 1.15486,0.179855 1.533502,0.57743 0.104127,0.104126 0.274516,0.104126 0.350244,-0.0284 1.798552,-3.332053 2.868217,-8.24494 3.540308,-11.122622 0.113592,-0.473303 0.07573,-0.719421 -0.369177,-0.889811 z M 29.809376,48.598759 c -2.792488,0 -2.801954,-0.15145 -5.584976,-0.15145 -0.407041,0 -0.814081,-0.13253 -0.795149,-0.40704 0.170389,-2.6221 0.104126,-2.6221 0.283982,-5.23474 0.01893,-0.27451 0.444904,-0.45437 0.795149,-0.45437 2.385447,0 2.385447,-0.0757 4.761429,-0.0757 0.350244,0 0.814081,0.25559 0.842479,0.5301 0.283982,2.6221 0.283982,2.6221 0.567964,5.23474 0.01893,0.27451 -0.463837,0.55849 -0.870878,0.55849 z m 9.816307,-0.55849 c -0.84248,-2.6221 -0.870878,-2.6221 -1.713357,-5.23474 -0.08519,-0.27451 -0.359711,-0.43544 -0.709955,-0.43544 -2.385448,0 -2.40438,-0.0852 -4.780361,-0.0852 -0.350245,0 -0.643693,0.25558 -0.605828,0.52063 0.40704,2.6221 0.435438,2.6221 0.842479,5.23474 0.03786,0.27451 0.454371,0.52063 0.861412,0.52063 2.792488,0 2.773556,-0.0757 5.566044,-0.0757 0.407041,0 0.634226,-0.17039 0.539566,-0.4449 z m -18.430423,0 c 0.31238,-2.6221 0.236652,-2.6221 0.558498,-5.23474 0.0284,-0.27451 -0.0568,-0.58689 -0.397575,-0.58689 -2.375981,0 -2.40438,0.14199 -4.789827,0.14199 -0.350245,0 -0.5301,0.17039 -0.605828,0.43544 -0.728887,2.6221 -0.728887,2.6221 -1.457774,5.23473 -0.07573,0.27452 0.03786,0.41651 0.444905,0.41651 2.783022,0 2.783022,0.0189 5.566045,0.0189 0.40704,0.009 0.653158,-0.15146 0.681556,-0.42597 z m 8.386931,-7.62965 c -0.26505,-2.6221 -0.160923,-2.6221 -0.435439,-5.23473 -0.0284,-0.27452 -0.26505,-0.47331 -0.539565,-0.47331 -1.874281,0 -1.883747,-0.21772 -3.748561,-0.21772 -0.274516,0 -0.397575,0.41651 -0.416507,0.69103 -0.151457,2.6221 -0.255583,2.6221 -0.416506,5.23473 -0.01893,0.27452 0.189321,0.69102 0.530099,0.69102 2.300253,0 2.300253,-0.19879 4.581574,-0.19879 0.340778,0 0.473303,-0.22718 0.444905,-0.49223 z m 7.66751,0 c -0.851945,-2.6221 -0.956072,-2.6221 -1.798552,-5.23473 -0.08519,-0.27452 -0.31238,-0.48277 -0.586895,-0.48277 -1.874281,0 -1.874281,0.0284 -3.748561,0.0284 -0.274516,0 -0.530099,0.17985 -0.492235,0.45437 0.40704,2.6221 0.539565,2.6221 0.956072,5.23473 0.04733,0.27452 0.274516,0.4449 0.605828,0.4449 2.281321,0 2.309719,0.0947 4.600506,0.0947 0.321846,0 0.549032,-0.27452 0.463837,-0.53957 z m -15.003708,0 c 0.302914,-2.6221 0.227185,-2.6221 0.530099,-5.23473 0.0284,-0.27452 -0.160923,-0.36918 -0.435438,-0.36918 -1.883747,0 -1.864815,-0.11359 -3.739095,-0.11359 -0.274516,0 -0.549032,0.21772 -0.634226,0.48277 -0.738353,2.6221 -0.965538,2.6221 -1.722823,5.23473 -0.07573,0.27452 0.388108,0.4449 0.71942,0.4449 2.281321,0 2.290787,-0.0379 4.572108,-0.0379 0.331312,0 0.672091,-0.14199 0.709955,-0.40704 z m 17.616341,10.18548 c -4.240795,0 -8.528922,-0.0473 -12.788649,-0.14199 -2.328652,-0.0473 -4.666769,-0.0852 -6.99542,-0.11359 -1.164326,-0.009 -2.328652,-0.0189 -3.492977,-0.0284 h -1.713357 c -0.435439,0 -0.965539,-0.0947 -1.230588,0.35024 -0.151457,0.25559 -0.123059,0.60583 0.06626,0.83302 0.293448,0.35024 0.814081,0.23665 1.221122,0.24612 h 1.77962 c 1.192723,0 2.375981,0.009 3.568705,0.0284 1.003403,0.009 2.016271,0.0189 3.019674,0.0379 0.35971,0.009 2.707294,-0.0947 2.707294,0.18932 0,0.25558 0.160923,1.14539 -0.03787,1.33471 -0.198787,0.19879 -0.596362,0.0663 -0.833013,0.0473 -0.416507,-0.0379 -0.851946,-0.0473 -1.268452,-0.0473 -0.331313,0 -0.691023,0.0947 -0.870878,0.37865 -0.151457,0.23665 -0.113593,0.56796 0.06626,0.78568 0.31238,0.37864 0.870878,0.27452 1.306317,0.27452 h 3.975746 c 0.511167,0 1.382045,0.15145 1.82695,-0.0947 0.217719,-0.12306 0.35971,-0.35972 0.35971,-0.60583 0,-0.23665 -0.123059,-0.5017 -0.350244,-0.60583 -0.132525,-0.0568 -0.274516,-0.0663 -0.407041,-0.0757 -0.198787,-0.009 -2.328651,-0.13252 -2.338117,-0.0379 0.06626,-0.47331 0,-0.96554 0.0095,-1.43885 0,0.0663 5.348325,0.0757 5.717501,0.0757 2.233991,0.009 4.467982,0.0284 6.701972,0.0284 0.388109,0 0.709955,-0.32184 0.709955,-0.70995 0,-0.38811 -0.321846,-0.70996 -0.709955,-0.70996 z m 0.700489,-13.59326 c 0.132525,0.11359 0.198787,2.76409 0.04733,2.85875 -0.151457,0.0947 -0.40704,0.16092 -0.520633,0.17985 -0.473303,0.10413 -1.022335,0.35971 -1.164326,0.26505 -0.141991,-0.0947 -1.003402,-2.67889 -0.861411,-2.81142 0.198787,-0.17985 1.277918,-0.32184 1.789085,-0.42597 0.31238,-0.0663 0.57743,-0.17986 0.709955,-0.0663 z m 18.723871,3.37938 c -0.937141,-0.43544 -1.647095,-0.64369 -2.40438,-0.9466 l -1.391511,-0.54904 c -0.501702,-0.18932 -1.003403,-0.36917 -1.51457,-0.5301 -1.022335,-0.32184 -2.073068,-0.56796 -3.133267,-0.73835 -0.530099,-0.0852 -1.060199,-0.15146 -1.590298,-0.20825 l -0.795149,-0.0663 c -0.227186,-0.0189 -0.435439,-0.0379 -0.672091,-0.0663 -0.57743,-0.0663 -1.192724,-0.17039 -1.836416,-0.27451 -0.227185,-0.0379 -0.425973,0.14199 -0.416507,0.36917 l 0.07573,2.25293 c 0.0095,0.17039 0.132525,0.31238 0.302914,0.34077 0.492235,0.0757 0.993936,0.16093 1.524036,0.22719 0.26505,0.0379 0.558498,0.0568 0.833013,0.0852 l 0.709955,0.0568 c 0.473303,0.0473 0.93714,0.10413 1.400977,0.17986 0.927674,0.15145 1.836416,0.35971 2.726226,0.64369 0.444905,0.14199 0.88981,0.29345 1.325249,0.46384 l 1.410443,0.55849 c 0.757285,0.29345 1.60923,0.57743 2.13933,0.83302 0.255584,0.12306 0.425973,0.24611 0.662624,0.46383 0.21772,0.19879 0.473303,0.46384 0.719421,0.74782 0.425973,-0.98447 0.814081,-1.98787 1.135927,-3.01967 -0.340778,-0.31238 -0.776217,-0.62476 -1.211655,-0.82355 z m -49.6589617,0.34078 c 1.3536467,0.35024 2.5842347,0.74782 3.7580267,1.19272 0.293448,0.1136 0.615294,-0.0473 0.700488,-0.35024 l 0.492236,-1.68496 c 0.07573,-0.26505 -0.0568,-0.5585 -0.321846,-0.65316 -1.230588,-0.46384 -2.508507,-0.88034 -3.91895,-1.24005 -0.444905,-0.11359 -0.8898099,-0.24612 -1.3252488,-0.36918 -1.6944251,-0.48277 -3.4551126,-0.98447 -5.4051214,-0.95607 0.1325249,0.975 0.3218461,1.93108 0.5490316,2.86822 1.3536469,0.0663 2.6883616,0.42597 4.0798728,0.82354 0.463837,0.1136 0.927674,0.24612 1.3915111,0.36918 z m -6.0109494,-4.07041 c -2.4111886,-24.435059 -1.2055943,-12.21753 0,0 z"
   id="path6-9"
   style="fill:#fffffe;fill-opacity:1;stroke-width:0.946606"
   sodipodi:nodetypes="ccccscccscsccccssccccccccscccscsscccscsccssccccscssccssssccssccscccccssccsscscssccssssccssccssccccccscccsccsccsccsscscccccssccccccccccccccsccccccccccssccccccccccccccccccccc" /></svg>
