<?xml version="1.0" encoding="utf-8"?>
<!-- Generator: Adobe Illustrator 16.0.3, SVG Export Plug-In . SVG Version: 6.00 Build 0)  -->
<!DOCTYPE svg PUBLIC "-//W3C//DTD SVG 1.1//EN" "http://www.w3.org/Graphics/SVG/1.1/DTD/svg11.dtd">
<svg version="1.1" xmlns="http://www.w3.org/2000/svg" xmlns:xlink="http://www.w3.org/1999/xlink" x="0px" y="0px"
	 viewBox="419.685 334.488 65.197 65.197"
	 enable-background="new 419.685 334.488 65.197 65.197" xml:space="preserve">
<g id="Ebene_1">
</g>
<g id="Ebene_2">
	<circle fill="#3A9E9E" cx="452.641" cy="367.415" r="30.27"/>
	<path fill="#FFFFFF" d="M434.225,388.177c2.95-2.502,9.647-5.574,17.432-5.574c8.341,0,15.43,3.525,18.006,6.098"/>
	<g>
		<path fill="#FFFFFF" d="M451.118,357.026c0,0-1.009-1.389,0.694-1.377c1.606,0.011,0.554,1.411,0.554,1.411l1.905,25.821
			l-4.917-0.052L451.118,357.026z"/>
	</g>
	<g>
		<path fill="none" stroke="#FFFFFF" stroke-width="1.4" stroke-miterlimit="10" d="M451.305,358.735
			c0.023,0.279-0.681,0.516-0.681,0.516c-1.705,0.39-3.943,1.524-3.943,1.524s-10.747,5.917-10.879,5.536
			c-0.133-0.38,15.165-8.811,15.165-8.811L451.305,358.735z M452.953,357.803c1.357,1.102,4.063,2.393,4.063,2.393
			s11.286,4.811,11.068,5.149c-0.218,0.338-16.289-6.504-16.289-6.504L452.953,357.803z M451.248,356.968
			c-0.124,0.036-0.086-0.501-0.086-0.501c0.092-1.569-0.354-4.039-0.354-4.039s-2.594-11.991-2.191-12.009
			s4.033,16.729,4.033,16.729S451.995,356.753,451.248,356.968z M452.953,357.803c0.084-0.297-0.147-0.563-0.303-0.656
			c-0.422-0.251-0.978-0.304-1.402-0.18c-0.145,0.042-0.33,0.235-0.279,0.533l0.337,1.234c0,0,0.186,0.229,0.489,0.106"/>
	</g>
	<path fill="#FFFFFF" d="M452.249,399.649c-17.955,0-32.563-14.609-32.563-32.563c0-17.955,14.607-32.563,32.563-32.563
		s32.563,14.606,32.563,32.563C484.81,385.04,470.204,399.649,452.249,399.649z M452.249,337.866
		c-16.115,0-29.223,13.107-29.223,29.221c0,16.112,13.105,29.22,29.223,29.22s29.223-13.106,29.223-29.22
		C481.47,350.973,468.364,337.866,452.249,337.866z"/>
</g>
</svg>
