<?xml version="1.0" encoding="utf-8"?>
<!-- Generator: Adobe Illustrator 26.0.2, SVG Export Plug-In . SVG Version: 6.00 Build 0)  -->
<svg version="1.1" xmlns="http://www.w3.org/2000/svg" xmlns:xlink="http://www.w3.org/1999/xlink" x="0px" y="0px"
	 viewBox="0 0 72 72" style="enable-background:new 0 0 72 72;" xml:space="preserve">
<style type="text/css">
	.st0{fill:#EF9357;}
	.st1{fill:#FFFFFF;}
</style>
<g id="Ebene_1">
	<path class="st0" d="M36,5.11c17.03,0,30.89,13.86,30.89,30.89c0,17.03-13.86,30.89-30.89,30.89S5.11,53.03,5.11,36
		C5.11,18.97,18.97,5.11,36,5.11"/>
	<path class="st1" d="M36,5.11c17.03,0,30.89,13.86,30.89,30.89c0,17.03-13.86,30.89-30.89,30.89S5.11,53.03,5.11,36
		C5.11,18.97,18.97,5.11,36,5.11 M36,1.61C17.04,1.61,1.61,17.04,1.61,36c0,18.96,15.43,34.39,34.39,34.39
		c18.96,0,34.39-15.43,34.39-34.39C70.39,17.04,54.97,1.61,36,1.61L36,1.61z M56.51,24.27c0,0-0.25,0.92-0.25,0.92
		c-1.62,5.67-3.92,10.84-6.23,16.24c-1.65,3.86-2.86,7.67-5.03,11.76c-0.33,0.57-0.64,1.44-1.08,1.93c-0.64,0.74-1.49,1.25-2.43,1.4
		c-3.9,0.56-7.67-0.02-11.5-0.24c-3.6-0.21-7.58-0.17-11.2-0.13l-0.47,0.01l-0.24,0c-1.96,0.04-3.22-2.29-2.23-3.96
		c1.2-2.18,2.26-4.43,3.44-6.62c1.15-2.2,2.64-4.23,3.68-6.5c2.52-4.99,4.81-10.09,6.81-15.29l0.34-0.86
		c0.43-1.38,1.89-2.46,3.36-2.39c0.47,0.05,1.41,0.07,1.88,0.08c1.84,0.17,4.32-0.19,4.53,0.14c0.13,0.21-0.12,0.73-0.21,0.93
		c-0.18,0.39-0.12,0.36-0.23,0.78c-0.08,0.32-0.36,0.54-0.69,0.56c-1.48,0.07-1.25-0.17-2.75-0.14c-0.46,0-2.1,0.31-2.56,0.28
		c-0.46,0.02-0.73,0.23-0.88,0.69c-2.18,5.57-4.88,10.93-7.55,16.25c-1.23,2.19-2.05,4.59-3.27,6.78c-1.19,2.21-2.55,4.33-3.83,6.48
		c-0.11,0.14-0.02,0.48,0.19,0.49l0.23,0l0.47,0.01c5.8,0.13,12.89,0.27,18.73,0.1c1.21-0.01,2.42-0.05,3.5-0.23
		c0.2-0.01,0.56-0.24,0.73-0.45c2.13-4.18,4.32-8.39,6.07-12.67c2.14-5.21,3.76-10.51,5.64-15.9l0.51-1.54
		c0.01-0.04-0.04-0.14-0.11-0.16c-0.4-0.03-1.24-0.09-1.66-0.05c-2.45,0.25-5.76,0.31-6.01,0.07c-0.17-0.16,0.42-0.78,0.74-1.14
		c0.37-0.41,0.58-0.71,0.83-1.08c0.14-0.19,0.35-0.31,0.59-0.31c0.99-0.03,0.84,0.26,1.83,0.28c0.95-0.02,2.72-0.38,3.67-0.4
		C55.79,20.34,57.21,22.48,56.51,24.27z M49.26,30.02c0.98-0.12,0.07-1.43-0.82-1.6c-1.25-0.24-7.79-0.39-9.88-0.35
		c-1.38,0.03-4.26,0.09-4.55,0.14c-1.4,0.22-1.29,1.08-1.04,1.43c0.42,0.6,4.93-0.13,7.64-0.19C44.82,29.36,48.28,30.14,49.26,30.02
		L49.26,30.02z M47.98,34.09c0.98-0.12,0.07-1.43-0.82-1.6c-1.25-0.24-7.79-0.39-9.88-0.35c-1.38,0.03-4.26,0.09-4.55,0.14
		c-1.4,0.22-1.29,1.08-1.04,1.43c0.42,0.6,4.93-0.13,7.64-0.19C43.54,33.43,47,34.21,47.98,34.09L47.98,34.09z M45.33,38.7
		c0.98-0.12,0.07-1.43-0.82-1.6c-1.25-0.24-7.79-0.39-9.88-0.35c-1.38,0.03-4.26,0.09-4.55,0.14c-1.4,0.22-1.29,1.08-1.04,1.43
		c0.42,0.6,4.93-0.13,7.64-0.19C40.89,38.05,44.35,38.82,45.33,38.7L45.33,38.7z M42.53,11.56c-1.61,1.74-1.7,4.81,0.26,6.28
		c-0.53,2.51-1.1,5.06-1.67,7.57c-0.04,0.3-0.25,0.63,0.15,0.91c0.37,0.07,0.44-0.15,0.54-0.24c0.34-0.55,0.96-1.59,1.3-2.15
		c1.02-1.65,2.2-3.26,3.05-5.02c1.76-0.24,3.85-1.11,4.39-3.08C52,11.44,45.46,8.05,42.53,11.56z"/>
</g>
<g id="Ebene_2">
</g>
</svg>
