<?xml version="1.0" encoding="UTF-8" standalone="no"?>
<svg
   xmlns:dc="http://purl.org/dc/elements/1.1/"
   xmlns:cc="http://creativecommons.org/ns#"
   xmlns:rdf="http://www.w3.org/1999/02/22-rdf-syntax-ns#"
   xmlns:svg="http://www.w3.org/2000/svg"
   xmlns="http://www.w3.org/2000/svg"
   xmlns:sodipodi="http://sodipodi.sourceforge.net/DTD/sodipodi-0.dtd"
   xmlns:inkscape="http://www.inkscape.org/namespaces/inkscape"
   version="1.1"
   id="Ebene_1"
   x="0px"
   y="0px"
   viewBox="0 0 65.2 65.2"
   enable-background="new 0 0 65.2 65.2"
   xml:space="preserve"
   sodipodi:docname="boerse_icon_neu.svg"
   inkscape:version="1.0.2-2 (e86c870879, 2021-01-15)"><metadata
   id="metadata33"><rdf:RDF><cc:Work
       rdf:about=""><dc:format>image/svg+xml</dc:format><dc:type
         rdf:resource="http://purl.org/dc/dcmitype/StillImage" /><dc:title></dc:title></cc:Work></rdf:RDF></metadata><defs
   id="defs31" /><sodipodi:namedview
   pagecolor="#ffffff"
   bordercolor="#666666"
   borderopacity="1"
   objecttolerance="10"
   gridtolerance="10"
   guidetolerance="10"
   inkscape:pageopacity="0"
   inkscape:pageshadow="2"
   inkscape:window-width="1920"
   inkscape:window-height="1137"
   id="namedview29"
   showgrid="false"
   inkscape:zoom="9.7660636"
   inkscape:cx="37.255049"
   inkscape:cy="39.774718"
   inkscape:window-x="-8"
   inkscape:window-y="-8"
   inkscape:window-maximized="1"
   inkscape:current-layer="Ebene_1" />
<g
   id="g4">
	<path
   fill="none"
   d="M32.705,1.479C15.67,1.479,1.81,15.338,1.81,32.372c0,17.035,13.859,30.893,30.895,30.893   c17.032,0,30.89-13.856,30.89-30.893C63.595,15.338,49.737,1.479,32.705,1.479z M22.088,38.719c0-2,0-5,0-7   C22.088,33.719,22.088,36.719,22.088,38.719z"
   id="path2" />
</g>
<path
   fill="#e66414"
   d="M32.564,1.67C15.527,1.67,1.67,15.527,1.67,32.563c0,17.033,13.857,30.893,30.895,30.893  c17.03,0,30.891-13.858,30.891-30.893C63.454,15.527,49.595,1.67,32.564,1.67z M22.088,38.719c0-2,0-5,0-7  C22.088,33.719,22.088,36.719,22.088,38.719z"
   id="path6"
   style="fill:#ffffff;fill-opacity:1" />
<path
   fill="none"
   d="M14.279,50.538c-0.025-1.236-0.011-2.474-0.062-3.707c-0.061-1.518-0.137-3.035-0.272-4.549  c-0.088-0.957-0.117-4.055-0.127-4.646c-0.002-0.151-0.06-1.453-0.05-2.063c0.008-0.367-0.273-1.943,1.091-2.166  c1.364-0.222,12.341-1.182,12.464-1.292c0,1.461-0.175,3.026-0.175,4.196c0,0.182-5.425,0.508-5.511,0.518  c-0.855,0.09-1.721,0.047-2.561,0.303c-0.829,0.252-1.098,0.519-1.106,1.391c-0.006,0.557,0.086,1.109,0.12,1.667  c0.04,0.64,0.063,1.276,0.098,1.916c0.021,0.396,0.075,0.795,0.075,1.19c0,0.595-0.035,1.187-0.059,1.779  c-0.006,0.098-0.029,0.195-0.029,0.293c-0.003,1.553-0.015,3.107,0,4.662c0.007,0.576,0.085,1.152,0.104,1.73  c0.011,0.352-0.034,0.703-0.047,1.057c-0.02,0.561-0.032,1.121-0.051,1.682c-0.024,0.726-0.052,1.451-0.081,2.178  c-0.017,0.41-0.035,0.82-0.061,1.23c4.282,2.463,9.239,3.881,14.523,3.881c16.11,0,29.22-13.109,29.22-29.224  c0-16.114-13.107-29.224-29.218-29.224C16.449,3.34,3.34,16.449,3.34,32.563c0,9.243,4.318,17.491,11.038,22.85  c-0.006-1.047-0.008-2.098-0.021-3.146C14.35,51.689,14.293,51.113,14.279,50.538z"
   id="path8" />

<path
   fill="#FFFFFF"
   d="M32.564,0C14.607,0,0,14.607,0,32.563c0,11.119,5.605,20.95,14.136,26.827c1.167,0.805,2.39,1.53,3.66,2.18  c4.437,2.269,9.454,3.556,14.769,3.556c17.952,0,32.561-14.606,32.561-32.563S50.517,0,32.564,0z M32.564,61.786  c-5.285,0-10.242-1.418-14.523-3.881c-1.286-0.74-2.51-1.572-3.663-2.492C7.658,50.054,3.34,41.806,3.34,32.563  C3.34,16.449,16.449,3.34,32.564,3.34c16.11,0,29.22,13.109,29.22,29.223C61.784,48.676,48.674,61.786,32.564,61.786z"
   id="path12"
   style="fill:#e66414;fill-opacity:1" />

<path
   class="st1"
   d="m 51.87551,21.423861 -0.23693,0.871903 c -1.535308,5.373579 -3.715067,10.273295 -5.904302,15.390995 -1.56374,3.6582 -2.710483,7.26902 -4.767037,11.1452 -0.312748,0.5402 -0.606542,1.36471 -1.023539,1.8291 -0.606542,0.70131 -1.412104,1.18465 -2.302962,1.32681 -3.696113,0.53072 -7.269021,-0.019 -10.898793,-0.22746 -3.411796,-0.19902 -7.183725,-0.16111 -10.614476,-0.1232 l -0.445429,0.009 h -0.227453 c -1.857533,0.0379 -3.051662,-2.17028 -2.113418,-3.75298 1.137266,-2.06603 2.14185,-4.1984 3.260161,-6.27391 1.089879,-2.08499 2.501983,-4.00886 3.487613,-6.16019 2.388257,-4.729127 4.558539,-9.562505 6.453981,-14.490655 l 0.322225,-0.81504 c 0.40752,-1.307855 1.791193,-2.331393 3.184343,-2.265053 0.445429,0.04739 1.336287,0.06634 1.781715,0.07582 1.743807,0.161112 4.094156,-0.180067 4.293177,0.132681 0.123204,0.199021 -0.113727,0.691836 -0.199021,0.88138 -0.17059,0.369611 -0.113727,0.34118 -0.217976,0.739223 -0.07582,0.30327 -0.34118,0.511769 -0.653928,0.530723 -1.402627,0.06634 -1.184651,-0.161112 -2.606233,-0.13268 -0.435952,0 -1.990214,0.293793 -2.426166,0.265361 -0.435951,0.01896 -0.691836,0.217976 -0.833994,0.653928 -2.066032,5.278806 -4.624879,10.358591 -7.155294,15.400462 -1.165697,2.07551 -1.942829,4.35004 -3.099048,6.42555 -1.127788,2.09447 -2.416689,4.10363 -3.629772,6.14124 -0.104249,0.13268 -0.01896,0.4549 0.180067,0.46438 h 0.217976 l 0.445429,0.009 c 5.496782,0.1232 12.216124,0.25588 17.750815,0.0948 1.146743,-0.009 2.293485,-0.0474 3.317024,-0.21798 0.189544,-0.009 0.530724,-0.22745 0.691837,-0.42647 2.018646,-3.96148 4.094155,-7.95138 5.752667,-12.00763 2.028123,-4.93763 3.563431,-9.960545 5.345146,-15.068762 l 0.483338,-1.45949 c 0.0095,-0.03791 -0.03791,-0.132681 -0.104249,-0.151636 -0.379089,-0.02843 -1.175174,-0.0853 -1.573217,-0.04739 -2.321917,0.23693 -5.458874,0.293794 -5.695804,0.06634 -0.161112,-0.151636 0.398043,-0.739223 0.701314,-1.080402 0.350657,-0.388566 0.549678,-0.672882 0.786608,-1.023539 0.132681,-0.180067 0.331703,-0.293794 0.559156,-0.293794 0.938244,-0.02843 0.796085,0.246408 1.734329,0.265362 0.900335,-0.01895 2.577802,-0.360134 3.478137,-0.379088 1.819624,-0.04739 3.165388,1.980737 2.501983,3.677158 z m -6.870977,5.449396 c 0.928766,-0.113727 0.06634,-1.355241 -0.777132,-1.516354 -1.184651,-0.227453 -7.382747,-0.369611 -9.363484,-0.331702 -1.307855,0.02843 -4.037292,0.08529 -4.312131,0.132681 -1.326809,0.208498 -1.22256,1.023538 -0.98563,1.355241 0.398043,0.568632 4.672265,-0.123204 7.240589,-0.180067 3.989906,-0.0853 7.269021,0.653927 8.197788,0.540201 z m -1.213083,3.857225 c 0.928766,-0.113727 0.06634,-1.355242 -0.777132,-1.516354 -1.184651,-0.227453 -7.382747,-0.369611 -9.363484,-0.331702 -1.307855,0.02843 -4.037292,0.08529 -4.312131,0.13268 -1.326809,0.208499 -1.22256,1.023539 -0.98563,1.355242 0.398043,0.568632 4.672265,-0.123204 7.240589,-0.180067 3.989906,-0.0853 7.269021,0.653927 8.197788,0.540201 z m -2.511461,4.368997 c 0.928766,-0.11373 0.06634,-1.35524 -0.777132,-1.51636 -1.184651,-0.22745 -7.382747,-0.36961 -9.363484,-0.3317 -1.307855,0.0284 -4.037292,0.0853 -4.312131,0.13268 -1.326809,0.2085 -1.22256,1.02354 -0.98563,1.35524 0.398043,0.56864 4.672265,-0.1232 7.240589,-0.18006 3.989906,-0.0758 7.269021,0.65392 8.197788,0.5402 z M 38.62637,9.378326 c -1.525831,1.649034 -1.611126,4.558538 0.246407,5.951688 -0.502292,2.37878 -1.042493,4.795469 -1.582694,7.174249 -0.03791,0.284316 -0.23693,0.597064 0.142158,0.862426 0.350657,0.06634 0.416997,-0.142158 0.511769,-0.227453 0.322226,-0.521247 0.909813,-1.506877 1.232038,-2.037601 0.966675,-1.563739 2.084986,-3.08957 2.890549,-4.757559 1.667989,-0.227453 3.648726,-1.051971 4.160496,-2.918981 1.374195,-4.160496 -4.823901,-7.37327 -7.600723,-4.046769 z"
   id="path6-3"
   style="fill:#e66414;fill-opacity:1;stroke-width:0.948;stroke-miterlimit:4;stroke-dasharray:none"
   sodipodi:nodetypes="ccccccccccccccccccccccccccccccccccccccccccccccscccccsscccccsscccccsccccccccc" /></svg>
