<?xml version="1.0" encoding="UTF-8" standalone="no"?>
<svg
   xmlns:dc="http://purl.org/dc/elements/1.1/"
   xmlns:cc="http://creativecommons.org/ns#"
   xmlns:rdf="http://www.w3.org/1999/02/22-rdf-syntax-ns#"
   xmlns:svg="http://www.w3.org/2000/svg"
   xmlns="http://www.w3.org/2000/svg"
   xmlns:sodipodi="http://sodipodi.sourceforge.net/DTD/sodipodi-0.dtd"
   xmlns:inkscape="http://www.inkscape.org/namespaces/inkscape"
   version="1.1"
   id="Ebene_1"
   x="0px"
   y="0px"
   viewBox="0 0 65.2 65.2"
   enable-background="new 0 0 65.2 65.2"
   xml:space="preserve"
   sodipodi:docname="Mitmachen_icon_neu.svg"
   inkscape:version="1.0.2-2 (e86c870879, 2021-01-15)"><sodipodi:namedview
   pagecolor="#ffffff"
   bordercolor="#666666"
   borderopacity="1"
   objecttolerance="10"
   gridtolerance="10"
   guidetolerance="10"
   inkscape:pageopacity="0"
   inkscape:pageshadow="2"
   inkscape:window-width="1497"
   inkscape:window-height="1094"
   id="namedview18"
   showgrid="false"
   inkscape:zoom="8"
   inkscape:cx="31.472199"
   inkscape:cy="48.544975"
   inkscape:window-x="0"
   inkscape:window-y="0"
   inkscape:window-maximized="0"
   inkscape:current-layer="layer2"><inkscape:grid
     type="xygrid"
     id="grid918" /></sodipodi:namedview><metadata
   id="metadata33"><rdf:RDF><cc:Work
       rdf:about=""><dc:format>image/svg+xml</dc:format><dc:type
         rdf:resource="http://purl.org/dc/dcmitype/StillImage" /><dc:title /></cc:Work></rdf:RDF></metadata><defs
   id="defs31" />
<g
   inkscape:groupmode="layer"
   id="layer1"
   inkscape:label="Layer 1"><path
     fill="#e66414"
     d="M 32.564,1.67 C 15.527,1.67 1.67,15.527 1.67,32.563 c 0,17.033 13.857,30.893 30.895,30.893 17.03,0 30.891,-13.858 30.891,-30.893 C 63.454,15.527 49.595,1.67 32.564,1.67 Z M 22.088,38.719 c 0,-2 0,-5 0,-7 0,2 0,5 0,7 z"
     id="path6"
     style="fill:#ffffff;fill-opacity:1" /></g><g
   inkscape:groupmode="layer"
   id="layer2"
   inkscape:label="Layer 2"><path
     fill="#FFFFFF"
     d="m 32.589598,0.0511977 c -17.942883,0 -32.5384003,14.5955173 -32.5384003,32.5374013 0,11.110259 5.6005937,20.93353 14.1248873,26.80591 1.166083,0.804367 2.388121,1.528797 3.657123,2.178286 C 22.26672,63.840012 27.279776,65.126 32.590597,65.126 50.528485,65.126 65.126,50.531482 65.126,32.588599 65.126,14.645715 50.528485,0.0511977 32.589598,0.0511977 Z m 0,61.7374283 c -5.280845,0 -10.233948,-1.416886 -14.511583,-3.877949 -1.284989,-0.739419 -2.508027,-1.570765 -3.66012,-2.490041 C 7.7031775,50.065849 3.388572,41.824333 3.388572,32.588599 c 0,-16.101332 13.098695,-29.200027 29.201026,-29.200027 16.097335,0 29.197029,13.098695 29.197029,29.200027 0,16.100333 -13.099694,29.200027 -29.197029,29.200027 z"
     id="path12"
     style="fill:#e6641e;fill-opacity:1;stroke-width:0.999214" /></g><g
   inkscape:groupmode="layer"
   id="layer3"
   inkscape:label="Layer 3" /><g
   id="g4">
	<path
   fill="none"
   d="M32.705,1.479C15.67,1.479,1.81,15.338,1.81,32.372c0,17.035,13.859,30.893,30.895,30.893   c17.032,0,30.89-13.856,30.89-30.893C63.595,15.338,49.737,1.479,32.705,1.479z M22.088,38.719c0-2,0-5,0-7   C22.088,33.719,22.088,36.719,22.088,38.719z"
   id="path2" />
</g>

<path
   fill="none"
   d="M14.279,50.538c-0.025-1.236-0.011-2.474-0.062-3.707c-0.061-1.518-0.137-3.035-0.272-4.549  c-0.088-0.957-0.117-4.055-0.127-4.646c-0.002-0.151-0.06-1.453-0.05-2.063c0.008-0.367-0.273-1.943,1.091-2.166  c1.364-0.222,12.341-1.182,12.464-1.292c0,1.461-0.175,3.026-0.175,4.196c0,0.182-5.425,0.508-5.511,0.518  c-0.855,0.09-1.721,0.047-2.561,0.303c-0.829,0.252-1.098,0.519-1.106,1.391c-0.006,0.557,0.086,1.109,0.12,1.667  c0.04,0.64,0.063,1.276,0.098,1.916c0.021,0.396,0.075,0.795,0.075,1.19c0,0.595-0.035,1.187-0.059,1.779  c-0.006,0.098-0.029,0.195-0.029,0.293c-0.003,1.553-0.015,3.107,0,4.662c0.007,0.576,0.085,1.152,0.104,1.73  c0.011,0.352-0.034,0.703-0.047,1.057c-0.02,0.561-0.032,1.121-0.051,1.682c-0.024,0.726-0.052,1.451-0.081,2.178  c-0.017,0.41-0.035,0.82-0.061,1.23c4.282,2.463,9.239,3.881,14.523,3.881c16.11,0,29.22-13.109,29.22-29.224  c0-16.114-13.107-29.224-29.218-29.224C16.449,3.34,3.34,16.449,3.34,32.563c0,9.243,4.318,17.491,11.038,22.85  c-0.006-1.047-0.008-2.098-0.021-3.146C14.35,51.689,14.293,51.113,14.279,50.538z"
   id="path8" />



<g
   id="g17"
   transform="translate(0.33178913,0.087868)"
   style="fill:#e66414;fill-opacity:1"><path
     class="st1"
     d="M 50.206,20.954 C 49.108,18.573 46.958,16.17 44.62,16.17 c -0.505,0 -0.994,0.114 -1.455,0.338 -2.613,1.271 -20.016,12.1 -20.81,12.654 l -0.12,0.084 c -0.078,0.056 -0.155,0.111 -0.233,0.167 -0.532,0.376 -1.022,0.746 -1.335,1.192 -0.105,0.15 -0.379,0.53 -0.756,1.05 -1.024,1.412 -2.832,3.887 -4.26,5.84 -1.161,1.593 -2.092,2.864 -2.188,3.004 -0.335,0.47 -0.347,1.142 -0.031,1.755 0.343,0.664 0.965,1.061 1.666,1.061 0.133,0 0.27,-0.015 0.399,-0.043 0.497,-0.104 3.877,-0.877 6.955,-1.582 2.474,-0.563 5.029,-1.148 5.211,-1.187 0.063,-0.012 0.123,-0.038 0.186,-0.055 0.657,-0.177 1.278,-0.576 1.879,-0.976 0.002,-0.003 0.003,-0.004 0.004,-0.005 l 0.369,-0.241 C 30.17,39.181 30.435,39.015 30.855,38.75 42.66,31.339 49.228,26.897 50.384,25.55 51.185,24.616 51.12,22.94 50.206,20.954 Z M 27.323,38.741 c -0.137,0.024 -1.711,0.385 -5.271,1.198 -0.416,0.096 -0.838,0.191 -1.258,0.289 -0.188,-1.102 -1.164,-2.707 -2.541,-3.254 1.725,-2.361 3.557,-4.875 3.885,-5.343 0.09,-0.129 0.262,-0.281 0.471,-0.443 0.563,0.021 1.114,0.186 1.666,0.516 2.213,1.32 3.641,4.709 3.727,6.738 -0.253,0.148 -0.487,0.261 -0.679,0.299 z M 49.022,24.383 C 48.438,25.064 45.176,27.639 29.9,37.231 29.825,37.282 29.756,37.324 29.688,37.366 29.635,37.044 29.562,36.715 29.471,36.381 29.386,36.068 29.283,35.749 29.166,35.433 29.16,35.415 29.154,35.4 29.148,35.384 28.9,34.713 28.585,34.044 28.212,33.408 v 0 C 27.999,33.044 27.771,32.69 27.521,32.354 v 0 C 27.519,32.352 27.517,32.35 27.516,32.347 27.326,32.089 27.12,31.845 26.909,31.611 26.838,31.533 26.763,31.46 26.69,31.385 c -0.165,-0.169 -0.333,-0.33 -0.508,-0.481 -0.074,-0.065 -0.146,-0.131 -0.224,-0.192 -0.248,-0.2 -0.503,-0.387 -0.771,-0.546 -0.183,-0.109 -0.38,-0.213 -0.591,-0.309 4.126,-2.594 17.282,-10.73 19.349,-11.735 0.114,-0.056 0.233,-0.092 0.354,-0.116 0.035,-0.007 0.07,-0.01 0.106,-0.015 0.09,-0.012 0.18,-0.016 0.271,-0.012 0.037,0.001 0.073,0.002 0.11,0.006 0.109,0.012 0.224,0.033 0.336,0.065 0.014,0.004 0.025,0.005 0.041,0.009 0.132,0.041 0.266,0.095 0.396,0.16 0.02,0.009 0.035,0.019 0.054,0.028 0.116,0.06 0.233,0.129 0.353,0.207 0.021,0.014 0.042,0.028 0.063,0.043 0.708,0.486 1.391,1.257 1.932,2.103 v 0 c 0.004,0.005 0.006,0.01 0.01,0.015 0.101,0.158 0.195,0.318 0.285,0.479 0.02,0.033 0.037,0.067 0.057,0.101 0.094,0.17 0.182,0.34 0.259,0.51 0.665,1.434 0.663,2.43 0.45,2.678 z"
     id="path13"
     style="fill:#e66414;fill-opacity:1" /><path
     class="st1"
     d="m 46.037,18.495 c 0.407,0.281 0.81,0.656 1.179,1.088 l -19.691,12.77 c 0.25,0.335 0.479,0.689 0.691,1.054 L 47.968,20.598 C 47.427,19.751 46.745,18.98 46.037,18.495 Z"
     id="path15"
     style="fill:#e66414;fill-opacity:1" /></g></svg>
