<?xml version="1.0" encoding="utf-8"?>
<!-- Generator: Adobe Illustrator 16.0.3, SVG Export Plug-In . SVG Version: 6.00 Build 0)  -->
<!DOCTYPE svg PUBLIC "-//W3C//DTD SVG 1.1//EN" "http://www.w3.org/Graphics/SVG/1.1/DTD/svg11.dtd">
<svg version="1.1" id="Ebene_1" xmlns="http://www.w3.org/2000/svg" xmlns:xlink="http://www.w3.org/1999/xlink" x="0px" y="0px"
	 viewBox="0 0 65.104 65.125" enable-background="new 0 0 65.104 65.125" xml:space="preserve">
<g id="Ebene_3">
</g>
<g id="Ebene_2">
	<g id="Ebene_1_1_">
		<path d="M32.692,63.298c17.033,0,30.895-13.856,30.895-30.891c0-17.032-13.859-30.891-30.895-30.891
			C15.661,1.517,1.8,15.375,1.8,32.407C1.8,49.441,15.661,63.298,32.692,63.298L32.692,63.298z"/>
		<g>
			<path fill="#E66414" d="M32.552,63.489c17.033,0,30.893-13.855,30.893-30.891c0-17.031-13.857-30.893-30.893-30.893
				S1.659,15.567,1.659,32.599C1.659,49.634,15.519,63.489,32.552,63.489L32.552,63.489z"/>
			<path fill="#FFFFFF" d="M32.564,65.161C14.609,65.161,0,50.552,0,32.598C0,14.643,14.608,0.035,32.564,0.035
				s32.563,14.607,32.563,32.563C65.125,50.552,50.519,65.161,32.564,65.161z M32.564,3.378c-16.115,0-29.223,13.107-29.223,29.221
				c0,16.112,13.105,29.219,29.223,29.219s29.223-13.106,29.223-29.219C61.785,16.485,48.679,3.378,32.564,3.378z"/>
		</g>
		<g>
			<path fill="#FFFFFF" d="M50.206,20.954c-1.098-2.381-3.248-4.784-5.586-4.784c-0.505,0-0.994,0.114-1.455,0.338
				c-2.613,1.271-20.016,12.1-20.81,12.654l-0.12,0.084c-0.078,0.056-0.155,0.111-0.233,0.167c-0.532,0.376-1.022,0.746-1.335,1.192
				c-0.105,0.15-0.379,0.53-0.756,1.05c-1.024,1.412-2.832,3.887-4.26,5.84c-1.161,1.593-2.092,2.864-2.188,3.004
				c-0.335,0.47-0.347,1.142-0.031,1.755c0.343,0.664,0.965,1.061,1.666,1.061c0.133,0,0.27-0.015,0.399-0.043
				c0.497-0.104,3.877-0.877,6.955-1.582c2.474-0.563,5.029-1.148,5.211-1.187c0.063-0.012,0.123-0.038,0.186-0.055
				c0.657-0.177,1.278-0.576,1.879-0.976c0.002-0.003,0.003-0.004,0.004-0.005l0.369-0.241c0.069-0.045,0.334-0.211,0.754-0.476
				c11.805-7.411,18.373-11.853,19.529-13.2C51.185,24.616,51.12,22.94,50.206,20.954z M27.323,38.741
				c-0.137,0.024-1.711,0.385-5.271,1.198c-0.416,0.096-0.838,0.191-1.258,0.289c-0.188-1.102-1.164-2.707-2.541-3.254
				c1.725-2.361,3.557-4.875,3.885-5.343c0.09-0.129,0.262-0.281,0.471-0.443c0.563,0.021,1.114,0.186,1.666,0.516
				c2.213,1.32,3.641,4.709,3.727,6.738C27.749,38.59,27.515,38.703,27.323,38.741z M49.022,24.383
				c-0.584,0.681-3.846,3.256-19.122,12.848c-0.075,0.051-0.144,0.093-0.212,0.135c-0.053-0.322-0.126-0.651-0.217-0.985
				c-0.085-0.313-0.188-0.632-0.305-0.948c-0.006-0.018-0.012-0.033-0.018-0.049c-0.248-0.671-0.563-1.34-0.936-1.976l0,0
				c-0.213-0.364-0.441-0.718-0.691-1.054l0,0c-0.002-0.002-0.004-0.004-0.005-0.007c-0.19-0.258-0.396-0.502-0.607-0.736
				c-0.071-0.078-0.146-0.151-0.219-0.226c-0.165-0.169-0.333-0.33-0.508-0.481c-0.074-0.065-0.146-0.131-0.224-0.192
				c-0.248-0.2-0.503-0.387-0.771-0.546c-0.183-0.109-0.38-0.213-0.591-0.309c4.126-2.594,17.282-10.73,19.349-11.735
				c0.114-0.056,0.233-0.092,0.354-0.116c0.035-0.007,0.07-0.01,0.106-0.015c0.09-0.012,0.18-0.016,0.271-0.012
				c0.037,0.001,0.073,0.002,0.11,0.006c0.109,0.012,0.224,0.033,0.336,0.065c0.014,0.004,0.025,0.005,0.041,0.009
				c0.132,0.041,0.266,0.095,0.396,0.16c0.02,0.009,0.035,0.019,0.054,0.028c0.116,0.06,0.233,0.129,0.353,0.207
				c0.021,0.014,0.042,0.028,0.063,0.043c0.708,0.486,1.391,1.257,1.932,2.103l0,0c0.004,0.005,0.006,0.01,0.01,0.015
				c0.101,0.158,0.195,0.318,0.285,0.479c0.02,0.033,0.037,0.067,0.057,0.101c0.094,0.17,0.182,0.34,0.259,0.51
				C49.237,23.139,49.235,24.135,49.022,24.383z"/>
			<path fill="#FFFFFF" d="M46.037,18.495c0.407,0.281,0.81,0.656,1.179,1.088l-19.691,12.77c0.25,0.335,0.479,0.689,0.691,1.054
				l19.752-12.809C47.427,19.751,46.745,18.98,46.037,18.495z"/>
		</g>
	</g>
</g>
<g id="Ebene_4">
</g>
</svg>
