<?xml version="1.0" encoding="utf-8"?>
<!-- Generator: Adobe Illustrator 16.0.3, SVG Export Plug-In . SVG Version: 6.00 Build 0)  -->
<!DOCTYPE svg PUBLIC "-//W3C//DTD SVG 1.1//EN" "http://www.w3.org/Graphics/SVG/1.1/DTD/svg11.dtd">
<svg version="1.1" id="Ebene_1" xmlns="http://www.w3.org/2000/svg" xmlns:xlink="http://www.w3.org/1999/xlink" x="0px" y="0px"
	 viewBox="0 0 65.104 65.125" enable-background="new 0 0 65.104 65.125" xml:space="preserve">
<g id="Ebene_3">
</g>
<g id="Ebene_2">
	<g id="Ebene_1_1_">
		<path d="M32.682,63.298c17.033,0,30.895-13.856,30.895-30.891c0-17.032-13.859-30.891-30.895-30.891
			c-17.032,0-30.894,13.858-30.894,30.891C1.788,49.441,15.649,63.298,32.682,63.298L32.682,63.298z"/>
		<g>
			<path fill="#E66414" d="M33.275,63.489c17.033,0,30.895-13.855,30.895-30.891c0-17.031-13.859-30.893-30.895-30.893
				c-17.032,0-30.894,13.861-30.894,30.893C2.382,49.634,16.241,63.489,33.275,63.489L33.275,63.489z"/>
			<path fill="#FFFFFF" d="M32.541,65.161c-17.956,0-32.563-14.609-32.563-32.563c0-17.955,14.607-32.563,32.563-32.563
				c17.955,0,32.563,14.607,32.563,32.563C65.103,50.552,50.496,65.161,32.541,65.161z M32.541,3.378
				c-16.116,0-29.225,13.107-29.225,29.221c0,16.112,13.107,29.219,29.226,29.219c16.115,0,29.223-13.106,29.223-29.219
				C61.764,16.485,48.656,3.378,32.541,3.378z"/>
		</g>
		<path fill="#FFFFFF" d="M39.672,27.467c-0.438-0.053-0.938-0.072-1.414-0.184c-0.623-0.145-0.707-0.523-0.273-1
			c0.423-0.464,0.918-0.731,1.564-0.619c0.523,0.09,1.021-0.015,1.516-0.19c0.327-0.116,0.67-0.201,1.014-0.263
			c0.747-0.134,1.272-0.528,1.59-1.224c0.228-0.503,0.484-0.989,0.441-1.572c-0.045-0.616-0.278-1.131-0.732-1.556
			c-0.701-0.658-1.545-0.968-2.488-1.068c-0.42-0.045-0.834-0.14-1.246-0.23c-0.158-0.035-0.316-0.104-0.455-0.191
			c-0.291-0.188-0.387-0.45-0.227-0.76c0.123-0.239,0.305-0.46,0.495-0.651c0.339-0.339,0.724-0.632,1.051-0.979
			c0.21-0.223,0.388-0.492,0.515-0.771c0.139-0.303-0.06-0.544-0.377-0.446c-0.319,0.101-0.657,0.263-0.902,0.487
			c-0.31,0.28-0.568,0.631-0.779,0.993c-0.336,0.579-0.813,0.846-1.461,0.773c-0.471-0.054-0.953-0.116-1.4-0.263
			c-0.489-0.159-0.592-0.508-0.335-0.964c0.671-1.178,1.521-2.159,2.846-2.652c0.565-0.21,1.103-0.509,1.642-0.788
			c0.646-0.336,1.338-0.554,2.054-0.599c1.563-0.1,2.677,1.095,2.067,2.743c-0.188,0.504-0.58,0.931-0.888,1.386
			c-0.085,0.12-0.204,0.212-0.3,0.326c-0.356,0.445-0.313,0.802,0.154,1.114c0.291,0.193,0.604,0.353,0.91,0.521
			c1.06,0.582,1.771,1.418,1.944,2.649c0.006,0.036,0.011,0.073,0.022,0.107c0.428,1.151,0.123,2.145-0.586,3.1
			c-0.607,0.824-1.334,1.475-2.287,1.842c-0.736,0.285-1.48,0.555-2.244,0.765C40.664,27.424,40.193,27.412,39.672,27.467z"/>
		<path fill="#FFFFFF" d="M27.525,19.44c-0.191,0.12-0.398,0.225-0.577,0.365c-0.565,0.446-1.216,0.599-1.915,0.555
			c-0.646-0.041-0.906-0.445-0.699-1.061c0.311-0.922,0.789-1.741,1.523-2.391c0.98-0.861,2.586-1.049,3.594-0.406
			c0.708,0.452,1.436,1.393,1.109,2.608c-0.111,0.424-0.227,0.86-0.427,1.246c-0.793,1.534-1.442,3.148-2.483,4.547
			c-0.087,0.118-0.157,0.248-0.224,0.381c-0.28,0.586-0.065,0.969,0.589,1.032c0.469,0.046,0.904-0.082,1.33-0.28
			c0.365-0.17,0.743-0.335,1.132-0.42c0.747-0.161,1.476-0.075,2.094,0.421c0.194,0.157,0.382,0.356,0.5,0.576
			c0.31,0.572,0.101,1.115-0.505,1.344c-0.22,0.083-0.463,0.12-0.696,0.15c-0.327,0.042-0.658,0.062-0.989,0.083
			c-1.246,0.079-2.493,0.153-3.738,0.233c-0.166,0.01-0.332,0.026-0.491,0.069c-0.665,0.183-1.276,0.009-1.861-0.287
			c-0.575-0.292-0.735-0.689-0.579-1.324c0.197-0.801,0.641-1.483,1.08-2.16c0.695-1.065,1.33-2.163,1.857-3.32
			c0.167-0.367,0.323-0.742,0.443-1.128c0.074-0.232,0.068-0.49,0.1-0.736C27.635,19.506,27.58,19.473,27.525,19.44z"/>
		<path fill="#FFFFFF" d="M16.635,27.336c0-0.588,0.003-1.177-0.004-1.766c-0.002-0.163-0.013-0.334-0.063-0.489
			c-0.093-0.292-0.297-0.398-0.601-0.335c-0.143,0.029-0.279,0.093-0.42,0.135c-0.713,0.219-1.422,0.157-2.112-0.08
			c-0.563-0.196-0.702-0.581-0.354-1.064c0.307-0.428,0.648-0.85,1.052-1.186c0.773-0.648,1.589-1.251,2.409-1.838
			c0.371-0.266,0.779-0.496,1.202-0.665c0.729-0.291,1.537,0.216,1.634,0.994c0.149,1.226,0.213,2.448-0.073,3.671
			c-0.07,0.295-0.044,0.624-0.005,0.932c0.166,1.316,0.21,2.638,0.165,3.963c-0.028,0.866-0.325,1.18-1.134,1.26
			c-0.78,0.077-1.433-0.341-1.591-1.057c-0.067-0.302-0.082-0.618-0.092-0.93c-0.015-0.515-0.005-1.029-0.005-1.545
			C16.643,27.336,16.638,27.336,16.635,27.336z"/>
		<path fill="#FFFFFF" d="M17.698,60.438c-0.119,0.008-0.246,0.047-0.355,0.021c-0.559-0.146-1.117-0.297-1.666-0.479
			c-0.125-0.041-0.207-0.207-0.311-0.314c0.152-0.023,0.322-0.105,0.457-0.063c0.541,0.17,1.07,0.375,1.604,0.575
			c0.104,0.039,0.193,0.115,0.289,0.175C17.709,60.379,17.703,60.408,17.698,60.438z"/>
		<g>
			<path fill="#FFFFFF" d="M4.466,57.125c-0.335-0.398-0.358-0.865-0.034-1.236c0.564-0.647,1.135-1.293,1.817-1.763
				c0.765-0.526,1.577-0.921,2.368-1.378c0.939-0.544,1.85-1.173,2.773-1.756c0.229-0.143,0.477-0.231,0.705-0.366
				c0.41-0.242,0.814-0.508,1.227-0.75c0.557-0.328,1.116-0.647,1.679-0.965c1.349-0.767,2.696-1.533,4.05-2.29
				c0.984-0.551,1.976-1.086,2.961-1.633c0.275-0.154,0.543-0.33,0.812-0.502c0.275-0.182,0.401-0.484,0.394-0.873
				c-0.012-0.493,0.07-0.956,0.225-1.401c0.069-0.198,0.145-0.399,0.188-0.612c0.188-0.916,2.008-3.808,2.608-4.394
				c4.257-4.161,11.39-5.884,14.157-6.148c0.98-0.121,1.979-0.057,2.963,0.183c3.139,0.844,4.363,2.938,4.686,3.257
				c0.246,0.241,0.484,0.499,0.694,0.783c0.796,1.076,1.28,2.357,1.558,3.74c0.106,0.545,0.09,1.121,0.131,1.684
				c0.076,0.965-0.574,4.122-2.382,5.501c-1.811,1.379-2.052,1.735-4.36,2.985c-2.308,1.25-8.334,2.537-10.805,2.074
				c-2.469-0.466-4.752-0.752-5.746-1.395C26.736,49.617,5.295,58.109,4.466,57.125z M36.723,46.366
				c0.59-0.091,1.173-0.169,1.75-0.267c0.43-0.076,0.867-0.137,1.283-0.27c1.17-0.374,2.348-0.732,3.496-1.188
				c1.324-0.521,2.602-1.184,3.793-2.058c0.879-0.644,1.244-1.614,1.159-2.885c-0.104-1.548-0.854-2.663-1.713-3.687
				c-0.281-0.332-0.626-0.587-0.958-0.843c-0.262-0.198-0.534-0.385-0.816-0.51c-0.932-0.408-1.863-0.82-2.858-0.861
				c-0.565-0.021-1.136-0.151-1.694-0.167c-0.373-0.009-0.74,0.128-1.111,0.156c-0.67,0.057-3.165,0.844-5.327,1.566
				c-0.493,0.201-2.959,1.343-4.323,2.492c-1.36,1.151-2.551,2.688-2.947,3.6c-0.305,0.688,0.637,2.611,0.76,2.986
				c0.164,0.49,0.461,0.797,0.869,0.935c0.367,0.121,0.729,0.258,1.103,0.346c0.752,0.183,1.483,0.55,2.263,0.509
				c0.147-0.01,0.301-0.011,0.449,0.002c0.485,0.041,0.973,0.117,1.452,0.127C34.475,46.377,35.601,46.366,36.723,46.366z"/>
			<path fill="#FFFFFF" d="M34.514,38.385c-1.715,0.104,1.156-1.809,4.479-2.066c3.318-0.26,5.311,1.301,6.313,2.428
				c1.004,1.128-2.743-0.668-5.463-0.875C37.123,37.661,36.228,38.281,34.514,38.385z"/>
		</g>
	</g>
</g>
<g id="Ebene_4">
</g>
</svg>
