<?xml version="1.0" encoding="UTF-8" standalone="no"?>
<!-- Generator: Adobe Illustrator 16.0.3, SVG Export Plug-In . SVG Version: 6.00 Build 0)  -->

<svg
   version="1.1"
   id="Ebene_1"
   x="0px"
   y="0px"
   viewBox="0 0 65.104 65.125"
   enable-background="new 0 0 65.104 65.125"
   xml:space="preserve"
   sodipodi:docname="2023-05_recherche_icon_neu.svg"
   inkscape:version="1.2.2 (732a01da63, 2022-12-09)"
   inkscape:export-filename="2023-05_recherche_icon_neu.png"
   inkscape:export-xdpi="103.18459"
   inkscape:export-ydpi="103.18459"
   xmlns:inkscape="http://www.inkscape.org/namespaces/inkscape"
   xmlns:sodipodi="http://sodipodi.sourceforge.net/DTD/sodipodi-0.dtd"
   xmlns="http://www.w3.org/2000/svg"
   xmlns:svg="http://www.w3.org/2000/svg"><defs
   id="defs31">
	

		
		
		
		
		
		
		
	</defs><sodipodi:namedview
   id="namedview29"
   pagecolor="#ffffff"
   bordercolor="#666666"
   borderopacity="1.0"
   inkscape:showpageshadow="2"
   inkscape:pageopacity="0.0"
   inkscape:pagecheckerboard="0"
   inkscape:deskcolor="#d1d1d1"
   showgrid="false"
   inkscape:zoom="7.2476008"
   inkscape:cx="23.38705"
   inkscape:cy="32.769465"
   inkscape:window-width="1920"
   inkscape:window-height="1001"
   inkscape:window-x="-9"
   inkscape:window-y="-9"
   inkscape:window-maximized="1"
   inkscape:current-layer="Ebene_1" />
<g
   id="Ebene_3">
</g>
<path
   d="m 32.682,63.298 c 17.033,0 30.895,-13.856 30.895,-30.891 0,-17.032 -13.859,-30.891 -30.895,-30.891 -17.032,0 -30.894,13.858 -30.894,30.891 0,17.034 13.861,30.891 30.894,30.891 z"
   id="path3" /><g
   id="g9">
			<path
   fill="#e66414"
   d="M 33.275,63.489 C 50.308,63.489 64.17,49.634 64.17,32.598 64.17,15.567 50.311,1.705 33.275,1.705 16.243,1.705 2.381,15.566 2.381,32.598 2.382,49.634 16.241,63.489 33.275,63.489 Z"
   id="path5" />
			<path
   fill="#ffffff"
   d="m 32.541,65.161 c -17.956,0 -32.563,-14.609 -32.563,-32.563 0,-17.955 14.607,-32.563 32.563,-32.563 17.955,0 32.563,14.607 32.563,32.563 -0.001,17.954 -14.608,32.563 -32.563,32.563 z m 0,-61.783 c -16.116,0 -29.225,13.107 -29.225,29.221 0,16.112 13.107,29.219 29.226,29.219 16.115,0 29.223,-13.106 29.223,-29.219 C 61.764,16.485 48.656,3.378 32.541,3.378 Z"
   id="path7" />
		</g><g
   id="g358"
   transform="translate(10,18)"><path
     fill="#ffffff"
     d="m 39.672,27.467 c -0.438,-0.053 -0.938,-0.072 -1.414,-0.184 -0.623,-0.145 -0.707,-0.523 -0.273,-1 0.423,-0.464 0.918,-0.731 1.564,-0.619 0.523,0.09 1.021,-0.015 1.516,-0.19 0.327,-0.116 0.67,-0.201 1.014,-0.263 0.747,-0.134 1.272,-0.528 1.59,-1.224 0.228,-0.503 0.484,-0.989 0.441,-1.572 -0.045,-0.616 -0.278,-1.131 -0.732,-1.556 -0.701,-0.658 -1.545,-0.968 -2.488,-1.068 -0.42,-0.045 -0.834,-0.14 -1.246,-0.23 -0.158,-0.035 -0.316,-0.104 -0.455,-0.191 -0.291,-0.188 -0.387,-0.45 -0.227,-0.76 0.123,-0.239 0.305,-0.46 0.495,-0.651 0.339,-0.339 0.724,-0.632 1.051,-0.979 0.21,-0.223 0.388,-0.492 0.515,-0.771 0.139,-0.303 -0.06,-0.544 -0.377,-0.446 -0.319,0.101 -0.657,0.263 -0.902,0.487 -0.31,0.28 -0.568,0.631 -0.779,0.993 -0.336,0.579 -0.813,0.846 -1.461,0.773 -0.471,-0.054 -0.953,-0.116 -1.4,-0.263 -0.489,-0.159 -0.592,-0.508 -0.335,-0.964 0.671,-1.178 1.521,-2.159 2.846,-2.652 0.565,-0.21 1.103,-0.509 1.642,-0.788 0.646,-0.336 1.338,-0.554 2.054,-0.599 1.563,-0.1 2.677,1.095 2.067,2.743 -0.188,0.504 -0.58,0.931 -0.888,1.386 -0.085,0.12 -0.204,0.212 -0.3,0.326 -0.356,0.445 -0.313,0.802 0.154,1.114 0.291,0.193 0.604,0.353 0.91,0.521 1.06,0.582 1.771,1.418 1.944,2.649 0.006,0.036 0.011,0.073 0.022,0.107 0.428,1.151 0.123,2.145 -0.586,3.1 -0.607,0.824 -1.334,1.475 -2.287,1.842 -0.736,0.285 -1.48,0.555 -2.244,0.765 -0.439,0.121 -0.91,0.109 -1.431,0.164 z"
     id="path11" /><path
     fill="#ffffff"
     d="m 27.525,19.44 c -0.191,0.12 -0.398,0.225 -0.577,0.365 -0.565,0.446 -1.216,0.599 -1.915,0.555 -0.646,-0.041 -0.906,-0.445 -0.699,-1.061 0.311,-0.922 0.789,-1.741 1.523,-2.391 0.98,-0.861 2.586,-1.049 3.594,-0.406 0.708,0.452 1.436,1.393 1.109,2.608 -0.111,0.424 -0.227,0.86 -0.427,1.246 -0.793,1.534 -1.442,3.148 -2.483,4.547 -0.087,0.118 -0.157,0.248 -0.224,0.381 -0.28,0.586 -0.065,0.969 0.589,1.032 0.469,0.046 0.904,-0.082 1.33,-0.28 0.365,-0.17 0.743,-0.335 1.132,-0.42 0.747,-0.161 1.476,-0.075 2.094,0.421 0.194,0.157 0.382,0.356 0.5,0.576 0.31,0.572 0.101,1.115 -0.505,1.344 -0.22,0.083 -0.463,0.12 -0.696,0.15 -0.327,0.042 -0.658,0.062 -0.989,0.083 -1.246,0.079 -2.493,0.153 -3.738,0.233 -0.166,0.01 -0.332,0.026 -0.491,0.069 -0.665,0.183 -1.276,0.009 -1.861,-0.287 -0.575,-0.292 -0.735,-0.689 -0.579,-1.324 0.197,-0.801 0.641,-1.483 1.08,-2.16 0.695,-1.065 1.33,-2.163 1.857,-3.32 0.167,-0.367 0.323,-0.742 0.443,-1.128 0.074,-0.232 0.068,-0.49 0.1,-0.736 -0.057,-0.031 -0.112,-0.064 -0.167,-0.097 z"
     id="path13" /><path
     fill="#ffffff"
     d="m 16.635,27.336 c 0,-0.588 0.003,-1.177 -0.004,-1.766 -0.002,-0.163 -0.013,-0.334 -0.063,-0.489 -0.093,-0.292 -0.297,-0.398 -0.601,-0.335 -0.143,0.029 -0.279,0.093 -0.42,0.135 -0.713,0.219 -1.422,0.157 -2.112,-0.08 -0.563,-0.196 -0.702,-0.581 -0.354,-1.064 0.307,-0.428 0.648,-0.85 1.052,-1.186 0.773,-0.648 1.589,-1.251 2.409,-1.838 0.371,-0.266 0.779,-0.496 1.202,-0.665 0.729,-0.291 1.537,0.216 1.634,0.994 0.149,1.226 0.213,2.448 -0.073,3.671 -0.07,0.295 -0.044,0.624 -0.005,0.932 0.166,1.316 0.21,2.638 0.165,3.963 -0.028,0.866 -0.325,1.18 -1.134,1.26 -0.78,0.077 -1.433,-0.341 -1.591,-1.057 -0.067,-0.302 -0.082,-0.618 -0.092,-0.93 -0.015,-0.515 -0.005,-1.029 -0.005,-1.545 0,0 -0.005,0 -0.008,0 z"
     id="path15" /></g><path
   fill="#ffffff"
   d="m 17.698,60.438 c -0.119,0.008 -0.246,0.047 -0.355,0.021 -0.559,-0.146 -1.117,-0.297 -1.666,-0.479 -0.125,-0.041 -0.207,-0.207 -0.311,-0.314 0.152,-0.023 0.322,-0.105 0.457,-0.063 0.541,0.17 1.07,0.375 1.604,0.575 0.104,0.039 0.193,0.115 0.289,0.175 -0.007,0.026 -0.013,0.055 -0.018,0.085 z"
   id="path17" /><g
   id="g23"
   transform="translate(-4,-20)">
			<path
   fill="#ffffff"
   d="M 4.466,57.125 C 4.131,56.727 4.108,56.26 4.432,55.889 4.996,55.242 5.567,54.596 6.249,54.126 7.014,53.6 7.826,53.205 8.617,52.748 c 0.939,-0.544 1.85,-1.173 2.773,-1.756 0.229,-0.143 0.477,-0.231 0.705,-0.366 0.41,-0.242 0.814,-0.508 1.227,-0.75 0.557,-0.328 1.116,-0.647 1.679,-0.965 1.349,-0.767 2.696,-1.533 4.05,-2.29 0.984,-0.551 1.976,-1.086 2.961,-1.633 0.275,-0.154 0.543,-0.33 0.812,-0.502 0.275,-0.182 0.401,-0.484 0.394,-0.873 -0.012,-0.493 0.07,-0.956 0.225,-1.401 0.069,-0.198 0.145,-0.399 0.188,-0.612 0.188,-0.916 2.008,-3.808 2.608,-4.394 4.257,-4.161 11.39,-5.884 14.157,-6.148 0.98,-0.121 1.979,-0.057 2.963,0.183 3.139,0.844 4.363,2.938 4.686,3.257 0.246,0.241 0.484,0.499 0.694,0.783 0.796,1.076 1.28,2.357 1.558,3.74 0.106,0.545 0.09,1.121 0.131,1.684 0.076,0.965 -0.574,4.122 -2.382,5.501 -1.811,1.379 -2.052,1.735 -4.36,2.985 -2.308,1.25 -8.334,2.537 -10.805,2.074 C 30.412,50.799 28.129,50.513 27.135,49.87 26.736,49.617 5.295,58.109 4.466,57.125 Z M 36.723,46.366 c 0.59,-0.091 1.173,-0.169 1.75,-0.267 0.43,-0.076 0.867,-0.137 1.283,-0.27 1.17,-0.374 2.348,-0.732 3.496,-1.188 1.324,-0.521 2.602,-1.184 3.793,-2.058 0.879,-0.644 1.244,-1.614 1.159,-2.885 C 48.1,38.15 47.35,37.035 46.491,36.011 46.21,35.679 45.865,35.424 45.533,35.168 45.271,34.97 44.999,34.783 44.717,34.658 43.785,34.25 42.854,33.838 41.859,33.797 41.294,33.776 40.723,33.646 40.165,33.63 c -0.373,-0.009 -0.74,0.128 -1.111,0.156 -0.67,0.057 -3.165,0.844 -5.327,1.566 -0.493,0.201 -2.959,1.343 -4.323,2.492 -1.36,1.151 -2.551,2.688 -2.947,3.6 -0.305,0.688 0.637,2.611 0.76,2.986 0.164,0.49 0.461,0.797 0.869,0.935 0.367,0.121 0.729,0.258 1.103,0.346 0.752,0.183 1.483,0.55 2.263,0.509 0.147,-0.01 0.301,-0.011 0.449,0.002 0.485,0.041 0.973,0.117 1.452,0.127 1.122,0.028 2.248,0.017 3.37,0.017 z"
   id="path19" />
			<path
   fill="#ffffff"
   d="m 34.514,38.385 c -1.715,0.104 1.156,-1.809 4.479,-2.066 3.318,-0.26 5.311,1.301 6.313,2.428 1.004,1.128 -2.743,-0.668 -5.463,-0.875 -2.72,-0.211 -3.615,0.409 -5.329,0.513 z"
   id="path21" />
		</g>
<g
   id="Ebene_4">
</g>
</svg>
