<?xml version="1.0" encoding="utf-8"?>
<!-- Generator: Adobe Illustrator 16.0.3, SVG Export Plug-In . SVG Version: 6.00 Build 0)  -->
<!DOCTYPE svg PUBLIC "-//W3C//DTD SVG 1.1//EN" "http://www.w3.org/Graphics/SVG/1.1/DTD/svg11.dtd">
<svg version="1.1" id="Ebene_1" xmlns="http://www.w3.org/2000/svg" xmlns:xlink="http://www.w3.org/1999/xlink" x="0px" y="0px"
	 viewBox="0 6.888 65.111 65.112" enable-background="new 0 6.888 65.111 65.112"
	 xml:space="preserve">
<g>
	<path fill="#010101" d="M32.615,70.086c17.033,0,30.893-13.855,30.893-30.892c0-17.032-13.859-30.891-30.893-30.891
		C15.583,8.306,1.722,22.165,1.722,39.196C1.722,56.23,15.583,70.086,32.615,70.086L32.615,70.086z"/>
	<g>
		<path fill="#E66414" stroke="#222221" stroke-miterlimit="10" d="M33.296,70.328c17.034,0,30.893-13.854,30.893-30.891
			c0-17.031-13.859-30.893-30.893-30.893c-17.034,0-30.893,13.862-30.893,30.893C2.404,56.473,16.263,70.328,33.296,70.328
			L33.296,70.328z"/>
		<path fill="#FFFFFF" d="M32.562,72C14.607,72,0,57.391,0,39.438C0,21.482,14.607,6.875,32.562,6.875
			c17.956,0,32.563,14.607,32.563,32.562C65.125,57.391,50.518,72,32.562,72z M32.562,10.216c-16.115,0-29.223,13.108-29.223,29.221
			c0,16.113,13.108,29.221,29.223,29.221c16.116,0,29.223-13.107,29.223-29.221C61.785,23.325,48.678,10.216,32.562,10.216z"/>
	</g>
	
		<line fill="none" stroke="#FFFFFF" stroke-width="1.9164" stroke-linecap="round" stroke-miterlimit="10" x1="19.75" y1="23.178" x2="19.75" y2="55.697"/>
	
		<line fill="none" stroke="#FFFFFF" stroke-width="1.9164" stroke-linecap="round" stroke-miterlimit="10" x1="28.445" y1="23.178" x2="28.445" y2="55.697"/>
	
		<line fill="none" stroke="#FFFFFF" stroke-width="1.9164" stroke-linecap="round" stroke-miterlimit="10" x1="36.93" y1="23.178" x2="36.93" y2="55.697"/>
	
		<line fill="none" stroke="#FFFFFF" stroke-width="1.9164" stroke-linecap="round" stroke-miterlimit="10" x1="45.451" y1="23.178" x2="45.451" y2="55.697"/>
	<g>
		<g>
			<path fill="#FFFFFF" d="M23.457,31.177c0,0.846-0.692,1.538-1.538,1.538h-4.51c-0.846,0-1.538-0.692-1.538-1.538v-4.445
				c0-0.846,0.692-1.538,1.538-1.538h4.51c0.846,0,1.538,0.692,1.538,1.538V31.177z"/>
		</g>
		<g>
			<path fill="#FFFFFF" d="M32.246,39.739c0,0.847-0.692,1.538-1.538,1.538h-4.51c-0.846,0-1.538-0.691-1.538-1.538v-4.445
				c0-0.846,0.692-1.538,1.538-1.538h4.51c0.846,0,1.538,0.692,1.538,1.538V39.739z"/>
		</g>
		<g>
			<path fill="#FFFFFF" d="M40.732,51.623c0,0.847-0.691,1.537-1.539,1.537h-4.509c-0.847,0-1.538-0.69-1.538-1.537v-4.445
				c0-0.846,0.691-1.538,1.538-1.538h4.509c0.848,0,1.539,0.692,1.539,1.538V51.623z"/>
		</g>
		<g>
			<path fill="#FFFFFF" d="M49.254,42.992c0,0.846-0.693,1.537-1.539,1.537h-4.51c-0.848,0-1.537-0.691-1.537-1.537v-4.445
				c0-0.846,0.689-1.539,1.537-1.539h4.51c0.846,0,1.539,0.693,1.539,1.539V42.992z"/>
		</g>
	</g>
</g>
</svg>
